<svg width="24" height="24" viewBox="0 0 24 24" fill="none" xmlns="http://www.w3.org/2000/svg">
<path fill-rule="evenodd" clip-rule="evenodd" d="M6.6787 5.18072C6.29259 4.78583 5.66657 4.78583 5.28046 5.18072C4.89435 5.5756 4.89435 6.21584 5.28046 6.61073L10.7555 12.2102L5.69182 17.3889C5.30571 17.7838 5.30571 18.4241 5.69182 18.8189C6.07793 19.2138 6.70394 19.2138 7.09006 18.8189L12.1537 13.6402L16.9882 18.5845C17.3743 18.9794 18.0003 18.9794 18.3864 18.5845C18.7725 18.1897 18.7725 17.5494 18.3864 17.1545L13.552 12.2102L18.7978 6.84513C19.1839 6.45024 19.1839 5.81 18.7978 5.41512C18.4117 5.02023 17.7857 5.02023 17.3996 5.41512L12.1537 10.7802L6.6787 5.18072Z" fill="#777"/>
</svg>
