<svg width="24" height="24" viewBox="0 0 24 24" fill="none" xmlns="http://www.w3.org/2000/svg">
<path fill-rule="evenodd" clip-rule="evenodd" d="M16.4097 8.82958C17.7364 9.86034 18.8289 11.1039 19.5311 12C18.8289 12.8961 17.7364 14.1397 16.4097 15.1704C14.9699 16.2891 13.4577 17 11.9999 17C10.5422 17 9.03002 16.2891 7.59018 15.1704C6.26347 14.1397 5.17096 12.8961 4.46874 12C5.17096 11.1039 6.26347 9.86034 7.59018 8.82958C9.03002 7.71091 10.5422 7 11.9999 7C13.4577 7 14.9699 7.71091 16.4097 8.82958ZM21.2571 10.9622C21.7314 11.5813 21.7314 12.4187 21.2571 13.0378C19.764 14.9868 16.1817 19 11.9999 19C7.81817 19 4.23592 14.9868 2.74277 13.0378C2.2685 12.4187 2.2685 11.5813 2.74277 10.9622C4.23592 9.01321 7.81817 5 11.9999 5C16.1817 5 19.764 9.01321 21.2571 10.9622ZM14 12C14 13.1046 13.1045 14 12 14C10.8954 14 9.99997 13.1046 9.99997 12C9.99997 10.8954 10.8954 10 12 10C13.1045 10 14 10.8954 14 12ZM16 12C16 14.2091 14.2091 16 12 16C9.79083 16 7.99997 14.2091 7.99997 12C7.99997 9.79086 9.79083 8 12 8C14.2091 8 16 9.79086 16 12Z" fill="#777777"/>
</svg>
