<svg width="200" height="177" viewBox="0 0 200 177" fill="none" xmlns="http://www.w3.org/2000/svg">
<path d="M46.2517 167.528C35.7162 173.585 18.5944 173.559 7.99196 167.462C-2.61045 161.365 -2.66399 151.505 7.87148 145.448C18.407 139.391 35.5288 139.418 46.1312 145.515C56.7202 151.612 56.7738 161.471 46.2517 167.528Z" fill="#D9D8D8"/>
<path d="M14.083 36.6886C11.3253 40.2508 9.12987 44.1998 7.02813 48.1889C5.24768 51.5643 3.49399 55.0997 3.2798 58.9154C3.22626 59.8226 3.2798 60.7832 3.73496 61.5837C3.93576 61.9439 4.24366 62.2907 4.65865 62.3975C4.97994 62.4775 5.31461 62.4242 5.62251 62.3308C8.60778 61.5436 10.8166 59.0888 12.6908 56.6607C14.2303 54.6595 15.6627 52.5916 16.9478 50.4303C19.411 46.2678 21.3521 41.5583 21.0174 36.742C20.9773 36.0749 20.7631 35.4212 20.6828 34.7541C20.6292 34.3406 20.5489 34.0871 20.7363 33.6868C20.8568 33.4467 21.2182 32.8597 21.5127 32.793C21.2718 32.8463 21.0308 32.8864 20.8032 32.9531C19.4913 33.2733 18.2062 33.7269 16.988 34.3139C16.4123 34.5941 15.8501 34.8742 15.3682 35.3011C14.8862 35.7147 14.4712 36.195 14.083 36.6886Z" fill="#404040"/>
<path d="M7.41631 159.043C7.16196 159.363 6.9076 159.697 6.66664 160.03C6.07762 160.871 5.46182 162.018 5.93036 163.032C6.63987 164.593 8.74161 164.82 10.2409 164.726C11.7001 164.633 13.0923 164.166 14.4444 163.606C15.7697 163.059 17.0816 162.392 18.0723 161.364C18.5006 160.924 18.8487 160.431 19.2905 160.017C20.0669 159.257 21.0575 158.75 22.0749 158.349C22.9986 157.989 24.016 157.656 24.6184 156.868C24.9531 156.428 25.1138 155.881 25.2075 155.348C25.5555 153.306 24.8193 151.118 23.3199 149.677C23.427 149.784 23.2128 150.158 23.1191 150.211C22.8648 150.385 22.7577 150.224 22.5301 150.064C22.0616 149.757 21.5529 149.517 21.004 149.397C20.348 149.251 19.8259 149.157 19.2503 149.531C17.6305 150.571 16.0375 151.639 14.4712 152.759C11.9143 154.614 9.39756 156.602 7.41631 159.043Z" fill="#1A1A1A"/>
<path d="M30.6024 90.455C29.0361 90.575 28.4203 89.5744 27.4565 88.5872C25.6091 86.7194 24.1633 84.4246 21.9812 82.9704C21.1512 82.4234 20.2008 82.0232 19.2503 81.7297C18.4337 81.4762 17.095 80.9826 16.3052 81.4895C15.4083 82.0499 15.1004 83.7576 14.7925 84.6781C13.9357 87.2664 13.3199 89.9346 12.8915 92.6296C12.008 98.0328 11.8741 103.543 12.0482 109.013C12.1687 112.922 12.7844 116.737 12.9183 120.633C13.0254 123.648 13.1191 126.663 13.4136 129.652C14.0428 136.176 14.9799 142.66 15.8233 149.157C15.917 149.931 16.0642 150.691 16.1178 151.465C16.1713 152.185 16.3855 152.399 17.095 152.706C18.7282 153.4 20.6827 153.32 22.249 152.492C22.838 152.185 23.3601 151.785 23.8688 151.372C24.083 151.198 24.1901 150.931 24.1901 150.651C24.0964 148.303 24.0294 138.324 24.1499 135.575C24.1767 134.868 24.2168 134.148 24.2436 133.441C24.3507 131.039 24.3507 128.625 24.2838 126.21C24.2436 124.822 24.0428 123.462 23.9893 122.074C23.9223 120.673 24.1499 119.406 24.3507 118.032C24.7791 115.07 25.2744 112.135 25.9571 109.213C27.4163 102.956 29.6921 96.8455 30.6024 90.455Z" fill="#149359"/>
<path d="M34.2436 157.509C33.7349 159.016 33.2128 161.271 34.739 162.285C35.1539 162.565 35.6493 162.672 36.1446 162.725C37.9384 162.912 39.7724 162.365 41.245 161.324C42.7175 160.284 43.8286 158.776 44.498 157.108C44.8594 156.228 45.1004 155.307 45.4752 154.427C46.0509 153.079 46.9612 151.825 47.162 150.358C47.336 149.024 46.8541 147.609 45.8768 146.662C44.913 145.715 43.4806 145.261 42.1419 145.475C41.178 145.635 40.4418 146.609 39.9063 147.369C39.2236 148.303 38.6078 149.29 38.0054 150.264C36.6131 152.479 35.2075 154.734 34.3373 157.202C34.3106 157.322 34.2838 157.415 34.2436 157.509Z" fill="#404040"/>
<path d="M47.8849 131.16C47.6171 127.864 46.6533 124.702 45.4485 121.62C45.2209 121.033 45.087 120.433 45.0602 119.806C44.7925 112.695 44.3641 95.8583 44.0294 91.4556C43.8956 89.6679 43.7349 87.8935 43.5074 86.1191C43.3735 85.1318 43.1995 84.1045 42.5435 83.3574C40.8568 84.9717 39.5448 86.586 37.0817 87.0263C33.8019 87.64 30.5756 86.0924 27.4297 84.9984C25.2476 84.238 22.8112 83.6509 20.7229 85.2652C20.1606 85.6922 19.7055 86.2658 19.411 86.8929C17.6841 90.4684 20.6693 94.0038 23.8286 95.2446C24.1098 95.3513 24.4043 95.4714 24.6319 95.6849C24.8862 95.9383 24.9933 96.2986 25.1004 96.6454C27.6841 105.384 30.8835 113.936 34.083 122.461C34.1231 122.568 34.1633 122.674 34.2035 122.781C34.5248 125.049 34.9531 127.304 35.4485 129.505C35.8902 131.493 38.5944 146.075 38.7952 148.437C38.8086 148.623 38.8353 148.81 38.929 148.97C39.0227 149.117 39.1834 149.21 39.3306 149.29C41.593 150.505 44.5783 150.171 46.5194 148.503C46.6399 148.397 46.7604 148.29 46.8273 148.143C46.9076 147.97 46.9076 147.783 46.9076 147.596C46.8675 142.113 48.34 136.643 47.8849 131.16Z" fill="#17AF6D"/>
<path d="M17.992 33.847C17.4431 34.0604 16.8675 34.2872 16.4792 34.7275C16.1178 35.1411 15.9572 35.6881 15.8099 36.2217C14.8594 39.8106 14.2302 43.4928 13.9491 47.2017C13.6278 51.3108 13.7215 55.4333 13.8153 59.5558C14.0027 67.9075 14.1901 76.2592 14.3775 84.6109C14.3909 85.1979 14.4043 85.7983 14.6854 86.3186C14.8996 86.7188 15.2477 87.0257 15.5957 87.3059C21.9143 92.5223 30.83 94.4568 38.7416 92.3222C39.9063 92.0153 41.0709 91.6018 41.9946 90.828C44.4578 88.7601 44.324 85.0378 44.3775 81.8225C44.4311 78.7807 44.9933 66.3732 45.2343 63.2513C45.2343 62.1707 45.4083 61.0634 45.502 59.9827C45.5957 58.8754 45.676 57.7547 45.7697 56.6474C45.9438 54.4194 46.1312 52.2047 46.3052 49.9767C46.4525 48.1089 46.5997 46.2411 46.7604 44.3733C46.8273 43.5728 46.8942 42.7723 46.9478 41.9719C46.9746 41.6383 47.0147 41.3582 46.8942 41.0513C46.7871 40.7845 46.6265 40.5043 46.4792 40.2508C45.8501 39.1702 44.913 38.343 43.9893 37.5292C42.5569 36.2617 40.9237 35.1544 39.3708 34.0471C36.1713 31.7924 32.7711 29.7778 29.0763 28.457C28.929 28.4037 28.7818 28.3503 28.6345 28.2969C28.3936 28.2169 28.1392 28.1369 27.8849 28.2036C27.6975 28.2569 27.5502 28.377 27.4029 28.4971C25.9036 29.7245 24.4177 31.0052 22.7577 32.0059C21.3119 32.9131 19.585 33.2333 17.992 33.847Z" fill="#1A1A1A"/>
<path d="M20.5221 51.0568C17.992 51.417 15.502 51.9774 13.0254 52.7111C11.2584 53.2314 9.47791 53.7518 7.77777 54.4722C6.59973 54.9792 5.43507 55.5929 4.55154 56.5134C4.083 56.9937 3.69478 57.5674 3.49397 58.2078C3.06559 59.5686 3.18607 61.4231 4.24364 62.4637C4.77911 62.9973 5.502 63.2908 6.2249 63.5043C7.21553 63.7845 8.24632 63.9446 9.27711 63.8245C10.6024 63.6777 11.834 63.1041 13.0656 62.6238C17.3226 60.9561 22.0348 60.209 25.743 57.5274C26.6131 56.9003 27.4163 56.1666 28.2062 55.4461C28.5007 55.1793 28.8086 54.8991 29.0361 54.5656C29.6118 53.7117 29.6252 52.5244 29.0495 51.6705C28.4739 50.8033 27.5368 50.6299 26.5596 50.6299C24.5248 50.6299 22.5167 50.7766 20.5221 51.0568Z" fill="#404040"/>
<path d="M26.2249 50.9505C25.9839 51.0706 25.7831 51.244 25.5823 51.5509C25.2343 52.1112 25.0201 52.7516 24.9799 53.4053C24.9397 53.9923 25.0468 54.5927 25.2744 55.1397C25.3681 55.3665 25.4752 55.6867 25.6894 55.8201C25.8768 55.9402 26.1312 55.9135 26.3454 55.9002C26.7202 55.8735 27.0816 55.7667 27.4565 55.7267C27.8715 55.6867 28.2999 55.7267 28.7148 55.7134C29.5716 55.6734 30.4016 55.3532 31.1513 54.9129C31.8875 54.4726 32.5569 53.9123 33.2128 53.3653C33.3467 53.2452 33.494 53.1252 33.5341 52.9517C33.6144 52.6582 33.3869 52.3647 33.1593 52.1779C32.7978 51.8844 32.3561 51.6709 32.0616 51.3241C31.8741 51.1106 31.7403 50.8438 31.5529 50.617C31.5261 50.5903 30.9505 50.07 30.9772 50.0566C29.6653 50.3101 28.34 50.5369 27.0147 50.7504C26.7068 50.7904 26.4525 50.8438 26.2249 50.9505Z" fill="#FFB78C"/>
<path d="M65.2611 35.7547C64.6988 35.4345 63.9224 35.4746 63.079 35.9682L11.3253 65.7461C9.62517 66.7201 8.2597 69.0948 8.2597 71.0293L8.35341 105.623C8.35341 106.584 8.70147 107.264 9.25033 107.585L10.6426 108.399C10.0937 108.078 9.74565 107.398 9.74565 106.437L9.66533 71.8431C9.66533 69.9086 11.0308 67.5339 12.7309 66.56L64.4846 36.782C65.3414 36.2884 66.1044 36.2484 66.6667 36.5686L65.2611 35.7547Z" fill="#E6E6E6"/>
<path d="M42.7309 91.1484C42.2624 91.7221 41.5663 92.0956 40.83 92.2024C39.9732 92.3224 39.6519 91.4953 38.8487 91.4286C38.581 91.4019 38.3266 91.6153 38.2196 91.8688C38.1125 92.1223 38.1258 92.4025 38.1258 92.6827C37.8581 92.7093 37.5636 92.736 37.3494 92.9095C37.0549 93.1363 36.9746 93.5765 37.0817 93.9501C37.1888 94.3103 37.4297 94.6172 37.6573 94.924C37.9518 95.2976 38.2597 95.6711 38.6345 95.9646C39.4244 96.5917 40.5355 96.8185 41.5127 96.565C41.9143 96.4583 42.3026 96.2715 42.6908 96.1381C43.3467 95.9113 44.0428 95.8179 44.672 95.5377C45.9036 94.9907 46.747 93.83 47.5101 92.736C47.6707 92.5092 47.8313 92.2424 47.7778 91.9756C47.7376 91.7888 47.5904 91.6287 47.4565 91.4953C46.8943 90.9616 46.2918 90.4413 45.9438 89.7476C45.743 89.3473 45.5823 88.4401 45.0469 88.4268C44.5114 88.4268 44.0161 88.9204 43.7483 89.3206C43.4003 89.8543 43.2129 90.468 42.8514 90.9883C42.8246 91.0417 42.7845 91.095 42.7309 91.1484Z" fill="#FFB78C"/>
<path d="M64.4712 36.7822C66.1714 35.8083 67.5502 36.5954 67.5502 38.5299L67.6439 73.1241C67.6439 75.072 66.2785 77.4334 64.5783 78.4073L12.838 108.185C11.1379 109.159 9.75905 108.385 9.75905 106.438L9.66534 71.8434C9.66534 69.9089 11.0308 67.5341 12.7309 66.5602L64.4712 36.7822Z" fill="#999999"/>
<path d="M23.8822 35.8351C24.1366 36.0886 24.5248 36.2486 24.8327 36.3154C25.3548 36.4221 25.8903 36.3687 26.4123 36.2887C29.3575 35.8217 32.1687 34.5276 34.3641 32.5131C35.1138 31.8193 34.5382 31.339 34.1232 30.6453C33.6546 29.8848 33.3066 29.0443 33.0924 28.1771C32.6908 26.5762 32.7577 24.9085 32.664 23.2675C32.6239 22.5871 32.5569 21.88 32.2222 21.293C31.5529 22.6004 30.6828 23.8278 29.585 24.8151C28.4873 25.8024 27.1352 26.5228 25.6895 26.8163C25.2075 26.9097 24.7256 26.9497 24.2571 27.0698C24.15 27.0965 24.0295 27.1365 23.9492 27.2165C23.8822 27.2832 23.8554 27.3766 23.8287 27.47C23.4672 28.5774 23.1192 29.698 23.0255 30.8721C22.9451 31.886 23.1727 32.8599 23.3735 33.8472C23.4806 34.3675 23.5342 34.9279 23.6546 35.4482C23.6948 35.5949 23.7751 35.715 23.8822 35.8351Z" fill="#FFB78C"/>
<path d="M22.6238 10.6465C20.7764 11.407 19.2637 12.9279 18.3936 14.7156C17.6841 16.1832 17.3896 17.8108 17.4163 19.4385C17.4297 20.2523 17.7912 23.3342 17.9384 24.0813C18.3668 26.376 18.7952 28.6841 19.2236 30.9788C19.4244 32.0861 19.9331 33.4336 21.2584 33.5003C22.249 33.5537 23.2129 33.2602 24.1499 32.94C26.6667 32.0861 29.1834 30.8854 30.8702 28.8442C31.0442 28.6307 31.2048 28.4039 31.2985 28.1504C31.4458 27.7368 31.3922 27.2565 31.1379 26.8963C31.0843 26.8163 31.0174 26.7229 31.0576 26.6295C31.0843 26.5761 31.1379 26.5494 31.1914 26.5094C31.5663 26.296 31.9679 26.1359 32.2892 25.829C33.7885 24.4415 35.0067 22.6004 35.1138 20.5725C35.1673 19.5185 34.9264 18.4646 34.5783 17.4506C34.0295 15.8897 33.2129 14.4088 32.075 13.2081C31.4324 12.5277 30.6827 11.954 29.8528 11.487C27.9518 10.4064 25.3414 9.72597 23.1995 10.4064C23.0121 10.4998 22.8113 10.5665 22.6238 10.6465Z" fill="#FFE5CC"/>
<path d="M25.6627 17.2374C25.6493 17.4242 25.6225 17.611 25.676 17.7844C25.7296 18.0245 25.917 18.2247 26.1044 18.3848C26.4391 18.6783 26.8139 18.9051 27.1352 19.1986C27.8447 19.8256 28.3133 20.6928 28.6881 21.5733C28.8354 21.9202 29.0094 22.2538 29.1432 22.6006C29.2637 22.9075 29.4645 22.9875 29.6653 22.6673C29.9063 22.2938 30.2811 22.027 30.656 21.7868C30.9773 21.5867 31.3119 21.3999 31.6868 21.2932C32.0616 21.1998 32.4632 21.2131 32.7979 21.3866C33.1727 21.5867 33.4137 21.9602 33.6011 22.3338C33.9893 23.1076 34.0027 23.9348 33.4806 24.6685C34.2838 23.9481 34.7657 22.9342 35.1673 21.9336C35.6894 20.6395 36.091 19.2253 35.8768 17.8511C35.8367 17.5976 35.7698 17.3441 35.6627 17.104C35.4485 17.3842 35.1406 17.9045 34.739 17.5176C34.6453 17.4242 34.5917 17.2774 34.4712 17.2107C34.2972 17.104 34.0428 17.2107 33.8554 17.2374C33.6145 17.2774 33.3601 17.2774 33.1058 17.2641C31.3655 17.1707 29.6653 16.4503 28.3936 15.2495C28.1125 14.9827 27.8447 14.6892 27.5368 14.4624C27.2155 14.2356 26.8407 14.0755 26.4525 14.1155C26.0643 14.1555 25.7028 14.409 25.5288 14.7559C25.1807 15.4897 25.7028 16.4769 25.6627 17.2374Z" fill="#FFBB00"/>
<path d="M33.8287 20.8932C34.2035 20.8131 34.5917 20.6931 34.9398 20.5063C35.1272 20.3996 35.2878 20.2928 35.4485 20.1461C35.502 20.0927 35.8367 19.8259 35.8233 19.7458C35.9304 20.1594 35.917 20.613 35.7965 21.0266C35.6627 21.4935 35.4083 21.9338 35.1272 22.3341C34.9398 22.6142 34.5917 22.7476 34.3106 22.9077C33.8688 23.1479 33.427 23.3613 32.9719 23.5615C32.0616 23.9484 31.1111 24.2552 30.1339 24.4553C29.8126 24.522 29.4913 24.5754 29.17 24.6288C28.3936 24.7355 27.5368 24.6555 26.8139 24.9756C26.573 25.0824 26.3588 25.2692 26.1312 25.4026C25.6225 25.6961 25.0736 25.9095 24.5114 26.0029C23.6814 26.1363 22.7979 26.0029 22.1017 25.5493C21.5663 25.2024 21.2718 24.6555 20.7898 24.2552C20.3481 23.8817 19.7055 23.5615 19.1031 23.6282C18.822 23.6548 18.5274 23.7749 18.2463 23.7216C17.5368 23.5748 17.3896 22.6809 17.2825 22.1072C17.1218 21.3201 17.0817 20.5196 17.162 19.7191C17.2155 19.1721 17.2557 18.6652 17.4967 18.1582C17.4163 18.3316 17.6975 18.5851 17.7912 18.6652C17.9786 18.8386 18.1794 18.9987 18.3802 19.1455C18.7952 19.439 19.2637 19.6791 19.7323 19.8926C21.8206 20.8532 24.0964 21.3335 26.3855 21.3735C28.0723 21.4002 29.7457 21.3468 31.419 21.2134C32.2222 21.1467 33.0388 21.0533 33.8287 20.8932Z" fill="#1A1A1A"/>
<path d="M17.4966 21.7336C17.6171 22.0538 17.8045 22.3607 18.1124 22.5208C18.2062 22.5608 18.2999 22.6008 18.407 22.5875C18.5274 22.5608 18.6345 22.4674 18.6881 22.3607C18.7684 22.2006 18.7952 21.9604 18.7684 21.7737C18.7416 21.4668 18.6479 21.1733 18.5274 20.9065C18.4739 20.7997 18.4203 20.693 18.3266 20.613C18.2195 20.5062 18.0723 20.4128 17.9116 20.3595C17.7376 20.3061 17.6439 20.3461 17.51 20.4529C17.2691 20.6396 17.2958 21.0399 17.3628 21.2934C17.4029 21.4268 17.4431 21.5869 17.4966 21.7336Z" fill="#FFE5CC"/>
<path d="M21.2852 22.6278C21.1245 22.8146 21.0978 23.0814 21.1781 23.3082C21.245 23.535 21.4057 23.7218 21.5931 23.8819C22.0884 24.2822 22.731 24.4422 23.3468 24.5623C23.5877 24.6023 23.8421 24.6424 24.0964 24.6023C24.3508 24.5623 24.5917 24.4422 24.7122 24.2154C24.913 23.8552 24.7256 23.4016 24.4579 23.1081C24.2035 22.8279 23.8822 22.6145 23.5342 22.4811C23.1727 22.3477 22.7711 22.321 22.3829 22.2943C22.0482 22.2543 21.5127 22.361 21.2852 22.6278Z" fill="#FFE5CC"/>
<path d="M26.5863 7.21786C28.2329 7.15116 29.9063 7.45801 31.3654 8.21847C31.4725 8.27183 31.5662 8.3252 31.6733 8.3919C33.1191 9.24575 34.2704 10.5665 34.9799 12.0741C35.3413 12.8346 35.5957 13.6484 35.7162 14.4756C35.8366 15.2761 35.2476 15.9965 34.5515 16.3434C34.016 16.5968 33.4002 16.6769 32.7978 16.6636C31.2316 16.6502 29.7188 16.1966 28.1927 15.8631C26.7336 15.5429 25.2342 15.3428 23.7483 15.3428C22.9719 15.3294 22.1954 15.3828 21.4324 15.2894C20.6693 15.196 19.8929 14.9559 19.3038 14.4489C18.8353 14.0486 18.514 13.4616 18.4739 12.8479C18.4605 12.5144 18.3802 12.1408 18.4739 11.8073C18.5542 11.5405 18.7014 11.2736 18.8889 11.0602C20.2008 9.61931 21.767 8.43193 23.6144 7.79154C23.7617 7.73818 23.9223 7.68481 24.083 7.64479C24.8862 7.40464 25.7296 7.25789 26.5863 7.21786Z" fill="#1A1A1A"/>
<path d="M36.3588 16.9968C36.7336 16.3031 36.2651 15.4893 36.2115 14.7688C36.1847 14.4086 36.0509 14.0084 35.917 13.6882C35.8367 13.5147 35.743 13.3413 35.6359 13.1946C35.5823 13.1145 35.5154 13.0345 35.4618 12.9677C35.4351 12.9277 35.3815 12.8877 35.3547 12.8343C35.3414 12.821 35.2477 12.7409 35.2477 12.7143C35.2477 12.7943 35.261 12.8877 35.2477 12.9811C35.2209 13.2079 35.0335 13.4347 34.8327 13.5281C34.5114 13.6882 34.1767 13.7949 33.8286 13.8883C31.3387 14.5687 28.6881 14.5287 26.1446 14.0617C25.3414 13.915 24.5649 13.7282 23.7751 13.5147C22.7443 13.2346 21.7403 12.8877 20.7363 12.5275C20.241 12.3407 19.7323 12.1539 19.2369 11.9538C19.0897 11.9004 18.8621 11.8738 18.7684 11.7403C18.6881 11.6203 18.6345 11.2467 18.7952 11.1533C18.3266 11.4468 17.8313 11.767 17.577 12.274C17.4029 12.5542 17.3628 12.8877 17.2691 13.2079C17.1084 13.7282 16.8675 14.2352 16.6934 14.7555C16.5328 15.2625 16.7336 15.4893 17.0817 15.8895C17.7644 16.6633 18.6345 17.237 19.5448 17.7173C21.834 18.8913 24.4311 19.425 27.0013 19.4383C29.5716 19.4517 32.1419 18.9447 34.5917 18.1442C35.2075 17.9441 35.9036 17.6773 36.2918 17.1169C36.3186 17.0769 36.332 17.0369 36.3588 16.9968Z" fill="#404040"/>
<path d="M30.656 53.619C30.8166 53.659 30.9639 53.6991 31.1111 53.7791C31.2584 53.8725 31.3521 54.0059 31.4592 54.126C32.0081 54.7931 32.6105 55.4334 33.3467 55.9004C33.5074 56.0071 33.735 56.0872 33.8688 55.9538C33.9358 55.887 33.9625 55.7803 33.9625 55.6869C33.9893 55.4468 33.9759 55.1933 33.9358 54.9532C34.2169 54.9932 34.3508 55.3134 34.4712 55.5802C34.5783 55.847 34.7122 56.0872 34.8728 56.3273C35.0201 56.5541 35.2343 56.7809 35.502 56.8076C35.7965 56.8343 36.0509 56.6075 36.1714 56.3407C36.2785 56.0738 36.2785 55.767 36.2517 55.4868C36.4257 55.8604 36.6399 56.2606 37.0281 56.4207C37.3226 56.5408 37.6841 56.4741 37.9251 56.2473C38.1526 56.0205 38.233 55.6602 38.1259 55.3667C38.4204 55.3534 38.7684 55.3267 38.9425 55.0866C39.0897 54.8864 39.0495 54.6063 38.996 54.3528C38.8086 53.5123 38.5141 52.6985 38.0991 51.9513C37.9652 51.7112 37.818 51.4711 37.6305 51.2976C37.3628 51.0441 37.0014 50.8974 36.6533 50.7773C36.0643 50.5638 35.4619 50.3904 34.8595 50.2703C34.2838 50.1636 33.7885 49.8968 33.1995 49.8167C32.5837 49.7367 31.9545 49.7767 31.3253 49.8167C31.0174 49.8434 30.6961 49.8701 30.415 49.9902C30.2008 50.0836 29.9866 50.2703 29.9732 50.5105C29.9599 50.6439 30.0134 50.764 30.0134 50.8974C30.0268 51.1775 29.8394 51.431 29.6653 51.6445C29.5315 51.8046 29.3441 51.978 29.2637 52.1915C29.2102 52.3249 29.237 52.4717 29.2102 52.6051C29.17 52.8452 29.0763 53.2855 29.3708 53.4189C29.5181 53.4856 29.7055 53.4723 29.8528 53.4856C30.0803 53.5123 30.3615 53.5523 30.656 53.619Z" fill="#FFE5CC"/>
<path d="M42.1151 89.6412C41.6867 89.908 41.2985 90.2282 40.8835 90.5217C40.3213 90.922 39.7055 91.2422 39.17 91.6691C38.6345 92.096 38.166 92.6564 38.0187 93.3234C37.992 93.4435 37.9786 93.5903 38.0723 93.697C38.1125 93.7504 38.1794 93.777 38.2463 93.7904C38.581 93.8838 38.9424 93.8037 39.2637 93.657C39.585 93.5102 39.8661 93.3101 40.174 93.15C41.2182 92.6163 42.5167 92.6297 43.4538 91.9359C43.909 91.5891 44.257 91.0954 44.4043 90.5351C44.498 90.2015 44.5114 89.8413 44.3641 89.5345C43.9357 88.694 42.6908 89.2943 42.1151 89.6412Z" fill="#FFE5CC"/>
<path d="M62.6908 64.9059C62.5435 64.1188 62.2892 63.3583 61.9143 62.6246C61.3521 61.5439 60.7229 60.5033 60.0937 59.4627C56.4257 53.3656 52.7577 47.242 48.2731 41.7186C47.0951 40.2778 45.8635 38.8369 44.4043 37.6762C42.8246 36.4088 41.419 37.4894 40.4953 39.0637C39.2236 41.2117 39.4244 44.3469 39.8126 46.7216C40.0134 47.9624 40.5623 48.963 41.0977 50.0837C42.2892 52.6052 43.7751 54.9799 45.2611 57.3414C46.4257 59.1958 47.5904 61.0369 48.755 62.8914C49.585 64.2122 50.3882 65.533 51.2316 66.8404C52.0616 68.1212 51.486 69.9757 51.071 71.3231C50.6024 72.8841 49.17 78.3407 48.8755 79.5414C48.3668 81.5026 47.751 83.4638 46.6667 85.0647C45.8099 86.3322 44.6319 87.3595 43.5342 88.4401C43.4137 88.5602 43.2798 88.6936 43.2263 88.8537C43.1192 89.1739 43.2798 89.5074 43.4538 89.7876C44.3508 91.2151 45.6894 92.3491 47.2289 93.0162C47.3896 93.0829 47.5502 93.1496 47.7243 93.1363C47.8715 93.1229 48.0188 93.0562 48.1526 92.9895C50.2544 91.8822 52.0081 90.1745 53.4271 88.2667C54.8461 86.3589 55.9706 84.2509 57.0683 82.143C58.7015 79.0078 60.2945 75.8459 61.6064 72.5505C62.5168 70.2025 63.1593 67.4541 62.6908 64.9059Z" fill="#404040"/>
<path d="M144.618 176.44L86.8005 143.166C85.3548 142.339 85.5422 140.885 87.2022 139.938L106.506 128.824C108.166 127.864 110.683 127.77 112.129 128.598L169.946 161.871C171.392 162.698 171.205 164.152 169.545 165.1L150.241 176.213C148.581 177.16 146.064 177.267 144.618 176.44Z" fill="#F2F2F2"/>
<path d="M168.621 159.803H167.564V160.096L113.012 128.704C111.647 127.917 109.277 128.024 107.697 128.918L89.5315 139.364H88.1259V141.165C88.1259 141.659 88.4338 142.126 89.0362 142.486L143.722 173.958C145.087 174.745 147.457 174.639 149.036 173.745L167.296 163.232C168.193 162.725 168.621 162.058 168.594 161.431V159.803H168.621Z" fill="#999999"/>
<path d="M143.748 172.197L89.0629 140.725C87.6974 139.938 87.8715 138.577 89.4377 137.67L107.697 127.156C109.264 126.249 111.647 126.156 113.012 126.943L167.697 158.415C169.063 159.202 168.889 160.563 167.323 161.471L149.063 171.984C147.483 172.891 145.114 172.984 143.748 172.197Z" fill="#E6E6E6"/>
<path d="M113.789 129.304V129.371L111.446 128.024C111.084 127.81 110.442 127.837 110.027 128.077L109.906 128.144V128.104H109.545V128.344C109.545 128.477 109.625 128.597 109.786 128.704L112.276 130.132C112.637 130.345 113.28 130.318 113.695 130.078L113.842 129.998C114.07 129.865 114.19 129.691 114.19 129.531V129.304H113.789Z" fill="#999999"/>
<path d="M112.276 129.892L109.786 128.464C109.424 128.251 109.465 127.89 109.893 127.65L110.04 127.57C110.455 127.33 111.098 127.303 111.459 127.517L113.949 128.944C114.311 129.158 114.27 129.518 113.842 129.758L113.695 129.838C113.266 130.078 112.637 130.105 112.276 129.892Z" fill="white"/>
<path d="M118.113 131.812V131.879L115.77 130.531C115.408 130.318 114.766 130.345 114.351 130.585L114.23 130.652V130.612H113.869V130.852C113.869 130.985 113.949 131.105 114.11 131.212L116.6 132.639C116.961 132.853 117.604 132.826 118.019 132.586L118.166 132.506C118.394 132.373 118.514 132.199 118.514 132.039V131.812H118.113Z" fill="#999999"/>
<path d="M116.6 132.399L114.11 130.972C113.748 130.758 113.789 130.398 114.217 130.158L114.364 130.078C114.779 129.838 115.422 129.811 115.783 130.025L118.273 131.452C118.635 131.666 118.594 132.026 118.166 132.266L118.019 132.346C117.604 132.586 116.961 132.613 116.6 132.399Z" fill="white"/>
<path d="M122.503 134.335V134.401L120.161 133.054C119.799 132.84 119.157 132.867 118.742 133.107L118.621 133.174V133.134H118.26V133.374C118.26 133.508 118.34 133.628 118.501 133.734L120.991 135.162C121.352 135.375 121.995 135.349 122.41 135.108L122.557 135.028C122.785 134.895 122.905 134.722 122.905 134.561V134.335H122.503Z" fill="#999999"/>
<path d="M120.991 134.908L118.501 133.481C118.139 133.267 118.179 132.907 118.608 132.667L118.755 132.587C119.17 132.347 119.813 132.32 120.174 132.533L122.664 133.961C123.025 134.174 122.985 134.535 122.557 134.775L122.41 134.855C121.995 135.095 121.352 135.122 120.991 134.908Z" fill="white"/>
<path d="M126.868 136.843V136.909L124.525 135.562C124.163 135.348 123.521 135.375 123.106 135.615L122.985 135.682V135.642H122.624V135.882C122.624 136.015 122.704 136.135 122.865 136.242L125.355 137.67C125.716 137.883 126.359 137.856 126.774 137.616L126.921 137.536C127.149 137.403 127.269 137.229 127.269 137.069V136.843H126.868Z" fill="#999999"/>
<path d="M125.355 137.416L122.865 135.988C122.503 135.775 122.544 135.415 122.972 135.175L123.119 135.095C123.534 134.854 124.177 134.828 124.538 135.041L127.028 136.469C127.39 136.682 127.349 137.042 126.921 137.283L126.774 137.363C126.359 137.603 125.716 137.629 125.355 137.416Z" fill="white"/>
<path d="M131.232 139.324V139.391L128.889 138.043C128.528 137.83 127.885 137.856 127.47 138.097L127.349 138.163V138.123H126.988V138.363C126.988 138.497 127.068 138.617 127.229 138.724L129.719 140.151C130.08 140.365 130.723 140.338 131.138 140.098L131.285 140.018C131.513 139.884 131.633 139.711 131.633 139.551V139.324H131.232Z" fill="#999999"/>
<path d="M129.719 139.911L127.229 138.484C126.868 138.27 126.908 137.91 127.336 137.67L127.483 137.59C127.898 137.35 128.541 137.323 128.902 137.536L131.392 138.964C131.754 139.177 131.714 139.538 131.285 139.778L131.138 139.858C130.71 140.098 130.08 140.125 129.719 139.911Z" fill="white"/>
<path d="M135.596 141.859V141.926L133.253 140.578C132.892 140.365 132.249 140.392 131.834 140.632L131.714 140.698V140.658H131.352V140.899C131.352 141.032 131.432 141.152 131.593 141.259L134.083 142.686C134.445 142.9 135.087 142.873 135.502 142.633L135.649 142.553C135.877 142.419 135.997 142.246 135.997 142.086V141.859H135.596Z" fill="#999999"/>
<path d="M134.083 142.446L131.593 141.019C131.232 140.805 131.272 140.445 131.7 140.205L131.847 140.125C132.262 139.885 132.905 139.858 133.266 140.071L135.756 141.499C136.118 141.712 136.078 142.073 135.649 142.313L135.502 142.393C135.074 142.62 134.445 142.646 134.083 142.446Z" fill="white"/>
<path d="M139.96 144.367V144.434L137.617 143.086C137.256 142.873 136.613 142.899 136.198 143.14L136.078 143.206V143.166H135.716V143.406C135.716 143.54 135.797 143.66 135.957 143.767L138.447 145.194C138.809 145.408 139.451 145.381 139.866 145.141L140.013 145.061C140.241 144.927 140.361 144.754 140.361 144.594V144.367H139.96Z" fill="#999999"/>
<path d="M138.434 144.954L135.944 143.527C135.582 143.313 135.623 142.953 136.051 142.713L136.198 142.633C136.613 142.393 137.256 142.366 137.617 142.579L140.107 144.007C140.469 144.22 140.428 144.581 140 144.821L139.853 144.901C139.438 145.141 138.809 145.168 138.434 144.954Z" fill="white"/>
<path d="M144.311 146.875V146.941L141.968 145.594C141.607 145.38 140.964 145.407 140.549 145.647L140.428 145.714V145.674H140.067V145.914C140.067 146.048 140.147 146.168 140.308 146.274L142.798 147.702C143.159 147.915 143.802 147.889 144.217 147.649L144.364 147.568C144.592 147.435 144.712 147.262 144.712 147.102V146.875H144.311Z" fill="#999999"/>
<path d="M142.798 147.462L140.308 146.034C139.947 145.821 139.987 145.461 140.415 145.221L140.562 145.14C140.977 144.9 141.62 144.874 141.981 145.087L144.471 146.515C144.833 146.728 144.793 147.088 144.364 147.328L144.217 147.409C143.802 147.649 143.159 147.675 142.798 147.462Z" fill="white"/>
<path d="M148.675 149.384V149.45L146.332 148.103C145.971 147.889 145.328 147.916 144.913 148.156L144.793 148.223V148.183H144.431V148.423C144.431 148.556 144.511 148.676 144.672 148.783L147.162 150.211C147.524 150.424 148.166 150.397 148.581 150.157L148.728 150.077C148.956 149.944 149.076 149.77 149.076 149.61V149.384H148.675Z" fill="#999999"/>
<path d="M147.162 149.971L144.672 148.543C144.311 148.33 144.351 147.969 144.779 147.729L144.926 147.649C145.341 147.409 145.984 147.382 146.345 147.596L148.835 149.023C149.197 149.237 149.157 149.597 148.728 149.837L148.581 149.917C148.166 150.157 147.523 150.184 147.162 149.971Z" fill="white"/>
<path d="M153.039 151.891V151.958L150.696 150.611C150.335 150.397 149.692 150.424 149.277 150.664L149.157 150.731V150.691H148.795V150.931C148.795 151.064 148.876 151.184 149.036 151.291L151.526 152.719C151.888 152.932 152.53 152.905 152.945 152.665L153.092 152.585C153.32 152.452 153.441 152.278 153.441 152.118V151.891H153.039Z" fill="#999999"/>
<path d="M151.526 152.478L149.036 151.051C148.675 150.837 148.715 150.477 149.143 150.237L149.291 150.157C149.706 149.917 150.348 149.89 150.71 150.104L153.2 151.531C153.561 151.745 153.521 152.105 153.092 152.345L152.945 152.425C152.517 152.665 151.888 152.692 151.526 152.478Z" fill="white"/>
<path d="M157.403 154.399V154.466L155.06 153.118C154.699 152.905 154.056 152.932 153.641 153.172L153.521 153.238V153.198H153.159V153.439C153.159 153.572 153.24 153.692 153.4 153.799L155.89 155.226C156.252 155.44 156.894 155.413 157.309 155.173L157.457 155.093C157.684 154.959 157.805 154.786 157.805 154.626V154.399H157.403Z" fill="#999999"/>
<path d="M155.89 154.986L153.4 153.559C153.039 153.345 153.079 152.985 153.507 152.745L153.655 152.665C154.07 152.425 154.712 152.398 155.074 152.612L157.564 154.039C157.925 154.253 157.885 154.613 157.457 154.853L157.309 154.933C156.881 155.173 156.252 155.2 155.89 154.986Z" fill="white"/>
<path d="M161.767 156.881V156.947L159.424 155.6C159.063 155.386 158.42 155.413 158.005 155.653L157.885 155.72V155.68H157.523V155.92C157.523 156.053 157.604 156.174 157.764 156.28L160.254 157.708C160.616 157.921 161.258 157.895 161.673 157.654L161.821 157.574C162.048 157.441 162.169 157.267 162.169 157.107V156.881H161.767Z" fill="#999999"/>
<path d="M160.254 157.468L157.764 156.04C157.403 155.827 157.443 155.467 157.872 155.226L158.019 155.146C158.434 154.906 159.076 154.88 159.438 155.093L161.928 156.521C162.289 156.734 162.249 157.094 161.821 157.334L161.673 157.414C161.245 157.655 160.616 157.681 160.254 157.468Z" fill="white"/>
<path d="M166.131 159.429V159.496L163.789 158.149C163.427 157.935 162.785 157.962 162.37 158.202L162.249 158.269V158.229H161.888V158.469C161.888 158.602 161.968 158.722 162.129 158.829L164.619 160.257C164.98 160.47 165.623 160.443 166.038 160.203L166.185 160.123C166.412 159.99 166.533 159.816 166.533 159.656V159.429H166.131Z" fill="#999999"/>
<path d="M164.605 160.017L162.115 158.589C161.754 158.376 161.794 158.015 162.222 157.775L162.37 157.695C162.785 157.455 163.427 157.428 163.789 157.642L166.279 159.069C166.64 159.283 166.6 159.643 166.171 159.883L166.024 159.963C165.609 160.19 164.98 160.217 164.605 160.017Z" fill="white"/>
<path d="M111.647 130.465V130.665L109.036 129.171C108.835 129.051 108.487 129.064 108.246 129.198L106.118 130.425V130.332H105.422V130.599C105.408 130.679 105.462 130.759 105.556 130.812L108.635 132.587C108.835 132.707 109.183 132.693 109.424 132.56L112.062 131.039C112.195 130.959 112.249 130.866 112.249 130.759L112.262 130.532L111.647 130.465Z" fill="#999999"/>
<path d="M108.634 132.28L105.555 130.505C105.355 130.385 105.381 130.185 105.609 130.052L108.246 128.531C108.474 128.397 108.835 128.384 109.036 128.504L112.115 130.279C112.316 130.399 112.289 130.599 112.061 130.732L109.424 132.253C109.183 132.387 108.835 132.4 108.634 132.28Z" fill="white"/>
<path d="M116.011 132.959V133.16L113.4 131.665C113.199 131.545 112.851 131.559 112.61 131.692L110.482 132.919V132.826H109.786V133.093C109.772 133.173 109.826 133.253 109.92 133.306L112.999 135.081C113.2 135.201 113.548 135.187 113.789 135.054L116.426 133.533C116.56 133.453 116.613 133.36 116.613 133.253L116.627 133.026L116.011 132.959Z" fill="#999999"/>
<path d="M112.999 134.788L109.92 133.013C109.719 132.893 109.746 132.693 109.973 132.56L112.61 131.039C112.838 130.905 113.199 130.892 113.4 131.012L116.479 132.786C116.68 132.906 116.653 133.107 116.426 133.24L113.788 134.761C113.547 134.894 113.199 134.908 112.999 134.788Z" fill="white"/>
<path d="M120.375 135.482V135.682L117.764 134.188C117.564 134.068 117.216 134.081 116.975 134.214L114.846 135.442V135.348H114.15V135.615C114.137 135.695 114.19 135.775 114.284 135.829L117.363 137.603C117.564 137.723 117.912 137.71 118.153 137.576L120.79 136.056C120.924 135.976 120.977 135.882 120.977 135.775L120.991 135.549L120.375 135.482Z" fill="#999999"/>
<path d="M117.363 137.296L114.284 135.522C114.083 135.402 114.11 135.202 114.337 135.068L116.974 133.547C117.202 133.414 117.563 133.401 117.764 133.521L120.843 135.295C121.044 135.415 121.017 135.615 120.79 135.749L118.153 137.27C117.912 137.403 117.563 137.416 117.363 137.296Z" fill="white"/>
<path d="M124.726 138.016V138.216L122.115 136.722C121.914 136.602 121.566 136.615 121.325 136.749L119.197 137.976V137.883H118.501V138.149C118.487 138.23 118.541 138.31 118.635 138.363L121.714 140.137C121.914 140.257 122.262 140.244 122.503 140.111L125.141 138.59C125.274 138.51 125.328 138.416 125.328 138.31L125.341 138.083L124.726 138.016Z" fill="#999999"/>
<path d="M121.713 139.844L118.634 138.07C118.434 137.95 118.46 137.75 118.688 137.616L121.325 136.095C121.553 135.962 121.914 135.949 122.115 136.069L125.194 137.843C125.395 137.963 125.368 138.163 125.14 138.297L122.503 139.818C122.276 139.951 121.914 139.964 121.713 139.844Z" fill="white"/>
<path d="M129.09 140.524V140.724L126.479 139.23C126.278 139.11 125.93 139.123 125.689 139.256L123.561 140.484V140.39H122.865V140.657C122.851 140.737 122.905 140.817 122.999 140.871L126.078 142.645C126.278 142.765 126.627 142.752 126.868 142.618L129.505 141.098C129.639 141.018 129.692 140.924 129.692 140.817L129.706 140.591L129.09 140.524Z" fill="#999999"/>
<path d="M126.078 142.352L122.999 140.578C122.798 140.458 122.825 140.257 123.052 140.124L125.689 138.603C125.917 138.47 126.278 138.456 126.479 138.576L129.558 140.351C129.759 140.471 129.732 140.671 129.505 140.804L126.867 142.325C126.64 142.445 126.278 142.459 126.078 142.352Z" fill="white"/>
<path d="M133.454 143.006V143.206L130.843 141.712C130.643 141.592 130.295 141.605 130.054 141.739L127.925 142.966V142.873H127.229V143.14C127.216 143.22 127.269 143.3 127.363 143.353L130.442 145.128C130.643 145.248 130.991 145.234 131.232 145.101L133.869 143.58C134.003 143.5 134.056 143.407 134.056 143.3L134.07 143.073L133.454 143.006Z" fill="#999999"/>
<path d="M130.442 144.834L127.363 143.06C127.162 142.94 127.189 142.74 127.416 142.606L130.053 141.086C130.281 140.952 130.642 140.939 130.843 141.059L133.922 142.833C134.123 142.953 134.096 143.153 133.869 143.287L131.232 144.808C130.991 144.928 130.642 144.941 130.442 144.834Z" fill="white"/>
<path d="M137.818 145.527V145.728L135.207 144.22C135.007 144.1 134.659 144.113 134.418 144.247L132.289 145.474V145.381H131.593V145.648C131.58 145.728 131.633 145.808 131.727 145.861L134.806 147.635C135.007 147.755 135.355 147.742 135.596 147.609L138.233 146.088C138.367 146.008 138.42 145.914 138.42 145.808L138.434 145.581L137.818 145.527Z" fill="#999999"/>
<path d="M134.806 147.342L131.727 145.568C131.526 145.448 131.553 145.248 131.78 145.114L134.418 143.593C134.645 143.46 135.007 143.447 135.207 143.567L138.286 145.341C138.487 145.461 138.46 145.661 138.233 145.795L135.596 147.316C135.355 147.449 135.007 147.462 134.806 147.342Z" fill="white"/>
<path d="M142.182 148.022V148.222L139.572 146.728C139.371 146.608 139.023 146.621 138.782 146.754L136.653 147.982V147.889H135.957V148.155C135.944 148.235 135.997 148.315 136.091 148.369L139.17 150.143C139.371 150.263 139.719 150.25 139.96 150.117L142.597 148.596C142.731 148.516 142.784 148.422 142.784 148.315L142.798 148.089L142.182 148.022Z" fill="#999999"/>
<path d="M139.17 149.85L136.091 148.076C135.89 147.956 135.917 147.756 136.144 147.622L138.782 146.101C139.009 145.968 139.371 145.954 139.571 146.074L142.65 147.849C142.851 147.969 142.825 148.169 142.597 148.303L139.96 149.823C139.719 149.957 139.371 149.97 139.17 149.85Z" fill="white"/>
<path d="M146.546 150.531V150.731L143.936 149.237C143.735 149.117 143.387 149.13 143.146 149.263L141.017 150.491V150.397H140.321V150.664C140.308 150.744 140.361 150.824 140.455 150.878L143.534 152.652C143.735 152.772 144.083 152.759 144.324 152.625L146.961 151.104C147.095 151.024 147.149 150.931 147.149 150.824L147.162 150.597L146.546 150.531Z" fill="#999999"/>
<path d="M143.521 152.359L140.442 150.584C140.241 150.464 140.268 150.264 140.495 150.131L143.133 148.61C143.36 148.477 143.722 148.463 143.922 148.583L147.001 150.358C147.202 150.478 147.175 150.678 146.948 150.811L144.311 152.332C144.083 152.466 143.735 152.479 143.521 152.359Z" fill="white"/>
<path d="M150.897 153.039V153.239L148.287 151.744C148.086 151.624 147.738 151.638 147.497 151.771L145.368 152.999V152.905H144.672V153.172C144.659 153.252 144.712 153.332 144.806 153.385L147.885 155.16C148.086 155.28 148.434 155.267 148.675 155.133L151.312 153.612C151.446 153.532 151.499 153.439 151.499 153.332L151.513 153.105L150.897 153.039Z" fill="#999999"/>
<path d="M147.885 154.867L144.806 153.092C144.605 152.972 144.632 152.772 144.859 152.639L147.497 151.118C147.724 150.984 148.086 150.971 148.286 151.091L151.365 152.866C151.566 152.986 151.539 153.186 151.312 153.319L148.675 154.84C148.447 154.973 148.086 154.987 147.885 154.867Z" fill="white"/>
<path d="M155.261 155.56V155.76L152.651 154.266C152.45 154.146 152.102 154.159 151.861 154.293L149.732 155.52V155.427H149.036V155.693C149.023 155.773 149.076 155.854 149.17 155.907L152.249 157.681C152.45 157.801 152.798 157.788 153.039 157.655L155.676 156.134C155.81 156.054 155.863 155.96 155.863 155.854L155.877 155.627L155.261 155.56Z" fill="#999999"/>
<path d="M152.249 157.375L149.17 155.6C148.969 155.48 148.996 155.28 149.223 155.147L151.861 153.626C152.088 153.492 152.45 153.479 152.65 153.599L155.729 155.373C155.93 155.493 155.903 155.694 155.676 155.827L153.039 157.348C152.811 157.481 152.45 157.495 152.249 157.375Z" fill="white"/>
<path d="M159.625 158.069V158.269L157.015 156.775C156.814 156.655 156.466 156.668 156.225 156.801L154.096 158.029V157.935H153.4V158.202C153.387 158.282 153.44 158.362 153.534 158.416L156.613 160.19C156.814 160.31 157.162 160.297 157.403 160.163L160.04 158.642C160.174 158.562 160.228 158.469 160.228 158.362L160.241 158.136L159.625 158.069Z" fill="#999999"/>
<path d="M156.613 159.883L153.534 158.109C153.333 157.989 153.36 157.789 153.588 157.655L156.225 156.134C156.452 156.001 156.814 155.988 157.015 156.108L160.094 157.882C160.294 158.002 160.268 158.202 160.04 158.336L157.403 159.857C157.162 159.99 156.814 160.003 156.613 159.883Z" fill="white"/>
<path d="M163.989 160.577V160.777L161.379 159.283C161.178 159.162 160.83 159.176 160.589 159.309L158.461 160.537V160.443H157.764V160.71C157.751 160.79 157.805 160.87 157.898 160.923L160.977 162.698C161.178 162.818 161.526 162.805 161.767 162.671L164.404 161.15C164.538 161.07 164.592 160.977 164.592 160.87L164.605 160.643L163.989 160.577Z" fill="#999999"/>
<path d="M160.977 162.405L157.898 160.63C157.697 160.51 157.724 160.31 157.952 160.177L160.589 158.656C160.816 158.522 161.178 158.509 161.379 158.629L164.458 160.404C164.659 160.524 164.632 160.724 164.404 160.857L161.767 162.378C161.526 162.498 161.178 162.512 160.977 162.405Z" fill="white"/>
<path d="M112.155 135.188V135.388L105.181 131.359C104.98 131.239 104.632 131.252 104.391 131.385L102.276 132.613V132.519H101.58V132.786C101.566 132.866 101.62 132.946 101.714 133L109.143 137.296C109.344 137.416 109.692 137.402 109.933 137.269L112.57 135.748C112.704 135.668 112.758 135.575 112.758 135.468L112.771 135.241L112.155 135.188Z" fill="#999999"/>
<path d="M109.143 137.002L101.713 132.707C101.513 132.586 101.539 132.386 101.767 132.253L104.404 130.732C104.632 130.599 104.993 130.585 105.194 130.705L112.624 135.001C112.825 135.121 112.798 135.321 112.57 135.455L109.933 136.976C109.705 137.109 109.344 137.123 109.143 137.002Z" fill="white"/>
<path d="M116.519 137.696V137.896L113.909 136.402C113.708 136.282 113.36 136.295 113.119 136.428L110.991 137.656V137.562H110.295V137.829C110.281 137.909 110.335 137.989 110.428 138.043L113.507 139.817C113.708 139.937 114.056 139.924 114.297 139.79L116.934 138.269C117.068 138.189 117.122 138.096 117.122 137.989L117.135 137.762L116.519 137.696Z" fill="#999999"/>
<path d="M113.507 139.51L110.428 137.736C110.227 137.616 110.254 137.416 110.482 137.282L113.119 135.761C113.347 135.628 113.708 135.615 113.909 135.735L116.988 137.509C117.189 137.629 117.162 137.829 116.934 137.963L114.297 139.484C114.056 139.617 113.708 139.63 113.507 139.51Z" fill="white"/>
<path d="M120.884 140.204V140.404L118.273 138.909C118.072 138.789 117.724 138.803 117.483 138.936L115.355 140.164V140.07H114.659V140.337C114.645 140.417 114.699 140.497 114.793 140.55L117.872 142.325C118.072 142.445 118.42 142.432 118.661 142.298L121.299 140.777C121.432 140.697 121.486 140.604 121.486 140.497L121.499 140.27L120.884 140.204Z" fill="#999999"/>
<path d="M117.871 142.032L114.792 140.257C114.592 140.137 114.618 139.937 114.846 139.804L117.483 138.283C117.711 138.149 118.072 138.136 118.273 138.256L121.352 140.031C121.553 140.151 121.526 140.351 121.298 140.484L118.661 142.005C118.42 142.125 118.072 142.138 117.871 142.032Z" fill="white"/>
<path d="M125.248 142.712V142.912L122.637 141.418C122.436 141.298 122.088 141.312 121.847 141.445L119.719 142.672V142.579H119.023V142.846C119.009 142.926 119.063 143.006 119.157 143.059L122.236 144.834C122.436 144.954 122.784 144.94 123.025 144.807L125.663 143.286C125.797 143.206 125.85 143.113 125.85 143.006L125.863 142.779L125.248 142.712Z" fill="#999999"/>
<path d="M122.235 144.541L119.157 142.766C118.956 142.646 118.982 142.446 119.21 142.313L121.847 140.792C122.075 140.658 122.436 140.645 122.637 140.765L125.716 142.539C125.917 142.659 125.89 142.86 125.663 142.993L123.025 144.514C122.784 144.634 122.436 144.647 122.235 144.541Z" fill="white"/>
<path d="M129.612 145.221V145.421L127.001 143.927C126.801 143.807 126.453 143.82 126.212 143.954L124.083 145.181V145.088H123.387V145.355C123.374 145.435 123.427 145.515 123.521 145.568L126.6 147.342C126.801 147.463 127.149 147.449 127.39 147.316L130.027 145.795C130.161 145.715 130.214 145.621 130.214 145.515L130.228 145.288L129.612 145.221Z" fill="#999999"/>
<path d="M126.586 147.036L123.507 145.261C123.307 145.141 123.333 144.941 123.561 144.808L126.198 143.287C126.426 143.153 126.787 143.14 126.988 143.26L130.067 145.034C130.268 145.155 130.241 145.355 130.013 145.488L127.376 147.009C127.149 147.142 126.801 147.156 126.586 147.036Z" fill="white"/>
<path d="M133.963 147.729V147.929L131.352 146.435C131.151 146.315 130.803 146.328 130.562 146.462L128.434 147.689V147.596H127.738V147.862C127.724 147.942 127.778 148.022 127.871 148.076L130.95 149.85C131.151 149.97 131.499 149.957 131.74 149.824L134.378 148.303C134.511 148.223 134.565 148.129 134.565 148.022L134.578 147.796L133.963 147.729Z" fill="#999999"/>
<path d="M130.95 149.557L127.871 147.783C127.671 147.663 127.697 147.463 127.925 147.329L130.562 145.808C130.79 145.675 131.151 145.661 131.352 145.782L134.431 147.556C134.632 147.676 134.605 147.876 134.377 148.01L131.74 149.53C131.513 149.664 131.151 149.677 130.95 149.557Z" fill="white"/>
<path d="M138.327 150.237V150.437L135.716 148.943C135.515 148.823 135.167 148.836 134.926 148.969L132.798 150.197V150.103H132.102V150.37C132.088 150.45 132.142 150.53 132.236 150.584L135.315 152.358C135.515 152.478 135.863 152.465 136.104 152.331L138.742 150.81C138.876 150.73 138.929 150.637 138.929 150.53L138.942 150.303L138.327 150.237Z" fill="#999999"/>
<path d="M135.314 152.065L132.235 150.291C132.035 150.17 132.061 149.97 132.289 149.837L134.926 148.316C135.154 148.183 135.515 148.169 135.716 148.289L138.795 150.064C138.996 150.184 138.969 150.384 138.742 150.517L136.104 152.038C135.877 152.172 135.515 152.185 135.314 152.065Z" fill="white"/>
<path d="M142.691 152.745V152.945L140.08 151.45C139.88 151.33 139.531 151.344 139.291 151.477L137.162 152.705V152.611H136.466V152.878C136.453 152.958 136.506 153.038 136.6 153.091L139.679 154.866C139.88 154.986 140.228 154.973 140.469 154.839L143.106 153.318C143.24 153.238 143.293 153.145 143.293 153.038L143.307 152.811L142.691 152.745Z" fill="#999999"/>
<path d="M139.679 154.573L136.6 152.798C136.399 152.678 136.426 152.478 136.653 152.345L139.29 150.824C139.518 150.69 139.879 150.677 140.08 150.797L143.159 152.572C143.36 152.692 143.333 152.892 143.106 153.025L140.468 154.546C140.227 154.679 139.879 154.693 139.679 154.573Z" fill="white"/>
<path d="M147.055 155.267V155.467L144.445 153.973C144.244 153.853 143.896 153.866 143.655 154L141.526 155.227V155.134H140.83V155.4C140.817 155.481 140.87 155.561 140.964 155.614L144.043 157.388C144.244 157.508 144.592 157.495 144.833 157.362L147.47 155.841C147.604 155.761 147.657 155.667 147.657 155.561L147.671 155.334L147.055 155.267Z" fill="#999999"/>
<path d="M144.043 157.082L140.964 155.307C140.763 155.187 140.79 154.987 141.017 154.854L143.655 153.333C143.882 153.199 144.244 153.186 144.444 153.306L147.523 155.08C147.724 155.2 147.697 155.401 147.47 155.534L144.833 157.055C144.592 157.188 144.244 157.202 144.043 157.082Z" fill="white"/>
<path d="M151.419 157.761V157.961L148.809 156.467C148.608 156.347 148.26 156.36 148.019 156.494L145.89 157.721V157.628H145.194V157.895C145.181 157.975 145.234 158.055 145.328 158.108L148.407 159.882C148.608 160.003 148.956 159.989 149.197 159.856L151.834 158.335C151.968 158.255 152.021 158.161 152.021 158.055L152.035 157.828L151.419 157.761Z" fill="#999999"/>
<path d="M148.407 159.589L145.328 157.815C145.127 157.695 145.154 157.495 145.381 157.361L148.019 155.84C148.246 155.707 148.608 155.694 148.808 155.814L151.887 157.588C152.088 157.708 152.061 157.908 151.834 158.042L149.197 159.563C148.956 159.696 148.608 159.709 148.407 159.589Z" fill="white"/>
<path d="M160.107 162.778V162.979L153.133 158.949C152.932 158.829 152.584 158.843 152.343 158.976L150.214 160.204V160.11H149.518V160.377C149.505 160.457 149.558 160.537 149.652 160.59L157.082 164.886C157.282 165.006 157.631 164.993 157.871 164.86L160.509 163.339C160.643 163.259 160.696 163.165 160.696 163.059L160.71 162.832L160.107 162.778Z" fill="#999999"/>
<path d="M157.095 164.606L149.665 160.31C149.464 160.19 149.491 159.99 149.719 159.856L152.356 158.336C152.584 158.202 152.945 158.189 153.146 158.309L160.576 162.605C160.776 162.725 160.75 162.925 160.522 163.058L157.885 164.579C157.657 164.699 157.296 164.713 157.095 164.606Z" fill="white"/>
<path d="M110.736 138.83V139.03L101.312 133.587C101.111 133.467 100.763 133.48 100.522 133.614L98.3936 134.841V134.748H97.6975V135.015C97.6841 135.095 97.7377 135.175 97.8314 135.228L107.724 140.938C107.925 141.058 108.273 141.045 108.514 140.912L111.151 139.391C111.285 139.311 111.339 139.217 111.339 139.111L111.352 138.884L110.736 138.83Z" fill="#999999"/>
<path d="M107.724 140.658L97.8313 134.948C97.6305 134.828 97.6572 134.628 97.8848 134.494L100.522 132.973C100.75 132.84 101.111 132.826 101.312 132.947L111.205 138.657C111.406 138.777 111.379 138.977 111.151 139.11L108.514 140.631C108.273 140.751 107.925 140.765 107.724 140.658Z" fill="white"/>
<path d="M115.1 141.338V141.538L112.49 140.044C112.289 139.924 111.941 139.937 111.7 140.071L109.572 141.298V141.205H108.876V141.472C108.862 141.552 108.916 141.632 109.009 141.685L112.088 143.46C112.289 143.58 112.637 143.566 112.878 143.433L115.515 141.912C115.649 141.832 115.703 141.739 115.703 141.632L115.716 141.405L115.1 141.338Z" fill="#999999"/>
<path d="M112.088 143.167L109.009 141.392C108.808 141.272 108.835 141.072 109.063 140.938L111.7 139.418C111.928 139.284 112.289 139.271 112.49 139.391L115.569 141.165C115.77 141.285 115.743 141.485 115.515 141.619L112.878 143.14C112.651 143.273 112.289 143.287 112.088 143.167Z" fill="white"/>
<path d="M119.491 143.86V144.06L116.881 142.566C116.68 142.446 116.332 142.459 116.091 142.592L113.963 143.82V143.726H113.266V143.993C113.253 144.073 113.307 144.153 113.4 144.207L116.479 145.981C116.68 146.101 117.028 146.088 117.269 145.954L119.906 144.434C120.04 144.353 120.094 144.26 120.094 144.153L120.107 143.927L119.491 143.86Z" fill="#999999"/>
<path d="M116.479 145.674L113.4 143.9C113.199 143.78 113.226 143.58 113.454 143.446L116.091 141.925C116.319 141.792 116.68 141.779 116.881 141.899L119.96 143.673C120.161 143.793 120.134 143.993 119.906 144.127L117.269 145.648C117.028 145.781 116.68 145.794 116.479 145.674Z" fill="white"/>
<path d="M123.829 146.368V146.568L121.218 145.074C121.018 144.953 120.669 144.967 120.428 145.1L118.3 146.328V146.234H117.604V146.501C117.59 146.581 117.644 146.661 117.738 146.715L120.817 148.489C121.017 148.609 121.366 148.596 121.607 148.462L124.244 146.941C124.378 146.861 124.431 146.768 124.431 146.661L124.445 146.434L123.829 146.368Z" fill="#999999"/>
<path d="M120.817 148.182L117.738 146.408C117.537 146.288 117.564 146.088 117.791 145.954L120.428 144.433C120.656 144.3 121.017 144.286 121.218 144.407L124.297 146.181C124.498 146.301 124.471 146.501 124.244 146.635L121.606 148.155C121.365 148.289 121.017 148.302 120.817 148.182Z" fill="white"/>
<path d="M128.193 148.875V149.076L125.582 147.581C125.382 147.461 125.034 147.475 124.793 147.608L122.664 148.835V148.742H121.968V149.009C121.955 149.089 122.008 149.169 122.102 149.222L125.181 150.997C125.382 151.117 125.73 151.103 125.971 150.97L128.608 149.449C128.742 149.369 128.795 149.276 128.795 149.169L128.809 148.942L128.193 148.875Z" fill="#999999"/>
<path d="M125.181 150.704L122.102 148.929C121.901 148.809 121.928 148.609 122.155 148.476L124.792 146.955C125.02 146.821 125.381 146.808 125.582 146.928L128.661 148.702C128.862 148.822 128.835 149.023 128.608 149.156L125.97 150.677C125.729 150.797 125.381 150.81 125.181 150.704Z" fill="white"/>
<path d="M132.557 151.384V151.584L129.947 150.09C129.746 149.97 129.398 149.983 129.157 150.117L127.028 151.344V151.251H126.332V151.518C126.319 151.598 126.372 151.678 126.466 151.731L129.545 153.506C129.746 153.626 130.094 153.612 130.335 153.479L132.972 151.958C133.106 151.878 133.159 151.784 133.159 151.678L133.173 151.451L132.557 151.384Z" fill="#999999"/>
<path d="M129.545 153.212L126.466 151.438C126.265 151.318 126.292 151.118 126.519 150.984L129.157 149.463C129.384 149.33 129.746 149.317 129.946 149.437L133.025 151.211C133.226 151.331 133.199 151.531 132.972 151.665L130.335 153.186C130.094 153.306 129.746 153.319 129.545 153.212Z" fill="white"/>
<path d="M136.908 153.892V154.092L134.297 152.598C134.096 152.478 133.748 152.491 133.507 152.625L131.379 153.852V153.759H130.683V154.025C130.669 154.106 130.723 154.186 130.817 154.239L133.896 156.013C134.096 156.133 134.445 156.12 134.685 155.987L137.323 154.466C137.457 154.386 137.51 154.292 137.51 154.186L137.524 153.959L136.908 153.892Z" fill="#999999"/>
<path d="M133.896 155.72L130.817 153.946C130.616 153.826 130.643 153.626 130.87 153.492L133.507 151.971C133.735 151.838 134.096 151.825 134.297 151.945L137.376 153.719C137.577 153.839 137.55 154.039 137.323 154.173L134.685 155.694C134.458 155.814 134.096 155.827 133.896 155.72Z" fill="white"/>
<path d="M141.272 156.4V156.6L138.661 155.106C138.461 154.986 138.112 154.999 137.872 155.132L135.743 156.36V156.266H135.047V156.533C135.034 156.613 135.087 156.693 135.181 156.747L138.26 158.521C138.461 158.641 138.809 158.628 139.05 158.494L141.687 156.974C141.821 156.893 141.874 156.8 141.874 156.693L141.888 156.467L141.272 156.4Z" fill="#999999"/>
<path d="M138.26 158.228L135.181 156.454C134.98 156.334 135.007 156.133 135.234 156L137.871 154.479C138.099 154.346 138.46 154.332 138.661 154.452L141.74 156.227C141.941 156.347 141.914 156.547 141.687 156.68L139.049 158.201C138.822 158.321 138.46 158.348 138.26 158.228Z" fill="white"/>
<path d="M145.408 158.789V158.989L142.798 157.494C142.597 157.374 142.249 157.388 142.008 157.521L139.88 158.749V158.655H139.183V158.922C139.17 159.002 139.224 159.082 139.317 159.135L142.396 160.91C142.597 161.03 142.945 161.017 143.186 160.883L145.823 159.362C145.957 159.282 146.011 159.189 146.011 159.082L146.024 158.855L145.408 158.789Z" fill="#999999"/>
<path d="M142.396 160.603L139.317 158.829C139.116 158.709 139.143 158.508 139.371 158.375L142.008 156.854C142.236 156.721 142.597 156.707 142.798 156.827L145.877 158.602C146.078 158.722 146.051 158.922 145.823 159.055L143.186 160.576C142.958 160.71 142.597 160.723 142.396 160.603Z" fill="white"/>
<path d="M156.252 165.02V165.22L146.827 159.777C146.627 159.657 146.278 159.67 146.038 159.803L143.909 161.031V160.937H143.213V161.204C143.2 161.284 143.253 161.364 143.347 161.418L153.24 167.128C153.44 167.248 153.789 167.234 154.03 167.101L156.667 165.58C156.801 165.5 156.854 165.407 156.854 165.3L156.868 165.073L156.252 165.02Z" fill="#999999"/>
<path d="M153.24 166.847L143.347 161.137C143.146 161.017 143.173 160.817 143.4 160.684L146.037 159.163C146.265 159.029 146.626 159.016 146.827 159.136L156.72 164.846C156.921 164.966 156.894 165.166 156.667 165.3L154.029 166.821C153.802 166.954 153.44 166.967 153.24 166.847Z" fill="white"/>
<path d="M100.08 137.109V137.309L97.4699 135.815C97.2691 135.695 96.9211 135.708 96.6801 135.841L94.5516 137.069V136.975H93.8555V137.242C93.8421 137.322 93.8956 137.402 93.9894 137.456L97.0683 139.23C97.2691 139.35 97.6172 139.337 97.8582 139.203L100.495 137.683C100.629 137.602 100.683 137.509 100.683 137.402L100.696 137.176L100.08 137.109Z" fill="#999999"/>
<path d="M97.0682 138.937L93.9892 137.163C93.7884 137.043 93.8152 136.842 94.0428 136.709L96.68 135.188C96.9076 135.055 97.269 135.041 97.4698 135.161L100.549 136.936C100.75 137.056 100.723 137.256 100.495 137.389L97.858 138.91C97.6305 139.03 97.269 139.057 97.0682 138.937Z" fill="white"/>
<path d="M104.445 139.617V139.817L101.834 138.323C101.633 138.202 101.285 138.216 101.044 138.349L98.9157 139.577V139.483H98.2196V139.75C98.2062 139.83 98.2598 139.91 98.3535 139.964L101.432 141.738C101.633 141.858 101.981 141.845 102.222 141.711L104.86 140.19C104.993 140.11 105.047 140.017 105.047 139.91L105.06 139.683L104.445 139.617Z" fill="#999999"/>
<path d="M101.432 141.445L98.3534 139.67C98.1526 139.55 98.1793 139.35 98.4069 139.217L101.044 137.696C101.272 137.562 101.633 137.549 101.834 137.669L104.913 139.444C105.114 139.564 105.087 139.764 104.859 139.897L102.222 141.418C101.981 141.552 101.633 141.565 101.432 141.445Z" fill="white"/>
<path d="M108.702 142.192V142.392L106.091 140.898C105.89 140.778 105.542 140.791 105.301 140.924L103.173 142.152V142.058H102.477V142.325C102.463 142.405 102.517 142.485 102.611 142.539L105.689 144.313C105.89 144.433 106.238 144.42 106.479 144.286L109.117 142.766C109.25 142.685 109.304 142.592 109.304 142.485L109.317 142.259L108.702 142.192Z" fill="#999999"/>
<path d="M105.689 144.02L102.61 142.246C102.41 142.126 102.436 141.925 102.664 141.792L105.301 140.271C105.529 140.138 105.89 140.124 106.091 140.244L109.17 142.019C109.371 142.139 109.344 142.339 109.116 142.472L106.479 143.993C106.252 144.113 105.89 144.127 105.689 144.02Z" fill="white"/>
<path d="M113.066 144.7V144.9L110.455 143.406C110.254 143.285 109.906 143.299 109.665 143.432L107.537 144.66V144.566H106.841V144.833C106.827 144.913 106.881 144.993 106.975 145.047L110.054 146.821C110.254 146.941 110.603 146.928 110.843 146.794L113.481 145.273C113.615 145.193 113.668 145.1 113.668 144.993L113.681 144.766L113.066 144.7Z" fill="#999999"/>
<path d="M110.053 146.528L106.975 144.753C106.774 144.633 106.8 144.433 107.028 144.3L109.665 142.779C109.893 142.645 110.254 142.632 110.455 142.752L113.534 144.527C113.735 144.647 113.708 144.847 113.481 144.98L110.843 146.501C110.602 146.621 110.254 146.635 110.053 146.528Z" fill="white"/>
<path d="M117.43 147.208V147.409L114.819 145.914C114.619 145.794 114.271 145.808 114.03 145.941L111.901 147.168V147.075H111.205V147.342C111.192 147.422 111.245 147.502 111.339 147.555L114.418 149.33C114.619 149.45 114.967 149.436 115.208 149.303L117.845 147.782C117.979 147.702 118.032 147.609 118.032 147.502L118.046 147.275L117.43 147.208Z" fill="#999999"/>
<path d="M114.418 149.037L111.339 147.262C111.138 147.142 111.165 146.942 111.392 146.809L114.029 145.288C114.257 145.154 114.618 145.141 114.819 145.261L117.898 147.035C118.099 147.155 118.072 147.356 117.845 147.489L115.207 149.01C114.966 149.13 114.618 149.143 114.418 149.037Z" fill="white"/>
<path d="M121.794 149.716V149.916L119.183 148.422C118.983 148.302 118.635 148.315 118.394 148.449L116.265 149.676V149.583H115.569V149.85C115.556 149.93 115.609 150.01 115.703 150.063L118.782 151.838C118.983 151.958 119.331 151.944 119.572 151.811L122.209 150.29C122.343 150.21 122.396 150.117 122.396 150.01L122.41 149.783L121.794 149.716Z" fill="#999999"/>
<path d="M118.782 151.544L115.703 149.77C115.502 149.65 115.529 149.45 115.756 149.316L118.393 147.796C118.621 147.662 118.983 147.649 119.183 147.769L122.262 149.543C122.463 149.663 122.436 149.863 122.209 149.997L119.572 151.518C119.331 151.651 118.983 151.665 118.782 151.544Z" fill="white"/>
<path d="M126.145 152.225V152.425L123.534 150.931C123.333 150.811 122.985 150.824 122.744 150.958L120.616 152.185V152.092H119.92V152.358C119.906 152.439 119.96 152.519 120.054 152.572L123.133 154.346C123.333 154.466 123.681 154.453 123.922 154.32L126.56 152.799C126.694 152.719 126.747 152.625 126.747 152.519L126.76 152.292L126.145 152.225Z" fill="#999999"/>
<path d="M123.132 154.053L120.053 152.279C119.853 152.159 119.879 151.959 120.107 151.825L122.744 150.304C122.972 150.171 123.333 150.158 123.534 150.278L126.613 152.052C126.814 152.172 126.787 152.372 126.56 152.506L123.922 154.027C123.695 154.16 123.333 154.173 123.132 154.053Z" fill="white"/>
<path d="M130.509 154.733V154.933L127.898 153.439C127.698 153.319 127.349 153.332 127.109 153.465L124.98 154.693V154.599H124.284V154.866C124.271 154.946 124.324 155.026 124.418 155.08L127.497 156.854C127.698 156.974 128.046 156.961 128.287 156.827L130.924 155.307C131.058 155.227 131.111 155.133 131.111 155.026L131.125 154.8L130.509 154.733Z" fill="#999999"/>
<path d="M127.497 156.561L124.418 154.787C124.217 154.667 124.244 154.466 124.471 154.333L127.108 152.812C127.336 152.679 127.697 152.665 127.898 152.785L130.977 154.56C131.178 154.68 131.151 154.88 130.924 155.013L128.286 156.534C128.059 156.668 127.697 156.681 127.497 156.561Z" fill="white"/>
<path d="M134.886 157.241V157.441L132.276 155.947C132.075 155.826 131.727 155.84 131.486 155.973L129.358 157.201V157.107H128.661V157.374C128.648 157.454 128.702 157.534 128.795 157.588L131.874 159.362C132.075 159.482 132.423 159.469 132.664 159.335L135.301 157.814C135.435 157.734 135.489 157.641 135.489 157.534L135.502 157.307L134.886 157.241Z" fill="#999999"/>
<path d="M131.874 159.069L128.795 157.294C128.594 157.174 128.621 156.974 128.849 156.841L131.486 155.32C131.713 155.187 132.075 155.173 132.276 155.293L135.355 157.068C135.556 157.188 135.529 157.388 135.301 157.521L132.664 159.042C132.423 159.176 132.075 159.189 131.874 159.069Z" fill="white"/>
<path d="M139.237 159.763V159.963L136.627 158.469C136.426 158.349 136.078 158.362 135.837 158.496L133.708 159.723V159.63H133.012V159.897C132.999 159.977 133.052 160.057 133.146 160.11L136.225 161.884C136.426 162.004 136.774 161.991 137.015 161.858L139.652 160.337C139.786 160.257 139.839 160.163 139.839 160.057L139.853 159.83L139.237 159.763Z" fill="#999999"/>
<path d="M136.225 161.578L133.146 159.803C132.945 159.683 132.972 159.483 133.199 159.35L135.837 157.829C136.064 157.695 136.426 157.682 136.626 157.802L139.705 159.576C139.906 159.697 139.879 159.897 139.652 160.03L137.015 161.551C136.774 161.684 136.426 161.698 136.225 161.578Z" fill="white"/>
<path d="M143.601 162.271V162.471L140.991 160.977C140.79 160.857 140.442 160.87 140.201 161.004L138.072 162.231V162.138H137.376V162.404C137.363 162.484 137.416 162.564 137.51 162.618L140.589 164.392C140.79 164.512 141.138 164.499 141.379 164.366L144.016 162.845C144.15 162.765 144.204 162.671 144.204 162.564L144.217 162.338L143.601 162.271Z" fill="#999999"/>
<path d="M140.589 164.085L137.51 162.311C137.309 162.191 137.336 161.991 137.564 161.857L140.201 160.337C140.428 160.203 140.79 160.19 140.991 160.31L144.07 162.084C144.27 162.204 144.244 162.404 144.016 162.538L141.379 164.059C141.138 164.192 140.79 164.206 140.589 164.085Z" fill="white"/>
<path d="M152.303 167.275V167.475L145.328 163.446C145.127 163.326 144.779 163.339 144.538 163.472L142.41 164.7V164.606H141.714V164.873C141.7 164.953 141.754 165.033 141.847 165.087L149.277 169.382C149.478 169.503 149.826 169.489 150.067 169.356L152.704 167.835C152.838 167.755 152.892 167.661 152.892 167.555L152.905 167.328L152.303 167.275Z" fill="#999999"/>
<path d="M149.291 169.102L141.861 164.806C141.66 164.686 141.687 164.486 141.914 164.353L144.552 162.832C144.779 162.698 145.141 162.685 145.341 162.805L152.771 167.101C152.972 167.221 152.945 167.421 152.718 167.554L150.08 169.075C149.839 169.195 149.491 169.209 149.291 169.102Z" fill="white"/>
<path d="M96.0509 139.43V139.63L93.4405 138.136C93.2397 138.016 92.8916 138.029 92.6506 138.163L90.5221 139.39V139.297H89.826V139.564C89.8126 139.644 89.8662 139.724 89.9599 139.777L93.0389 141.551C93.2397 141.671 93.5877 141.658 93.8287 141.525L96.4659 140.004C96.5998 139.924 96.6533 139.83 96.6533 139.724L96.6667 139.497L96.0509 139.43Z" fill="#999999"/>
<path d="M93.0255 141.258L89.9465 139.484C89.7457 139.364 89.7725 139.164 90 139.03L92.6373 137.509C92.8648 137.376 93.2263 137.363 93.4271 137.483L96.5061 139.257C96.7069 139.377 96.6801 139.577 96.4525 139.711L93.8153 141.232C93.5877 141.365 93.2397 141.378 93.0255 141.258Z" fill="white"/>
<path d="M100.402 141.938V142.138L97.7912 140.644C97.5904 140.524 97.2423 140.537 97.0014 140.671L94.8728 141.898V141.805H94.1767V142.071C94.1633 142.151 94.2169 142.231 94.3106 142.285L97.3896 144.059C97.5904 144.179 97.9384 144.166 98.1794 144.033L100.817 142.512C100.95 142.432 101.004 142.338 101.004 142.231L101.017 142.005L100.402 141.938Z" fill="#999999"/>
<path d="M97.3894 143.766L94.3104 141.992C94.1096 141.872 94.1364 141.672 94.364 141.538L97.0012 140.017C97.2288 139.884 97.5902 139.87 97.791 139.991L100.87 141.765C101.071 141.885 101.044 142.085 100.816 142.219L98.1793 143.739C97.9517 143.873 97.5902 143.886 97.3894 143.766Z" fill="white"/>
<path d="M104.766 144.46V144.661L102.155 143.166C101.955 143.046 101.606 143.06 101.365 143.193L99.237 144.42V144.327H98.5409V144.594C98.5275 144.674 98.581 144.754 98.6747 144.807L101.754 146.582C101.955 146.702 102.303 146.688 102.544 146.555L105.181 145.034C105.315 144.954 105.368 144.861 105.368 144.754L105.382 144.527L104.766 144.46Z" fill="#999999"/>
<path d="M101.754 146.275L98.6746 144.501C98.4738 144.38 98.5006 144.18 98.7281 144.047L101.365 142.526C101.593 142.393 101.954 142.379 102.155 142.499L105.234 144.274C105.435 144.394 105.408 144.594 105.181 144.727L102.543 146.248C102.316 146.382 101.954 146.395 101.754 146.275Z" fill="white"/>
<path d="M109.13 146.968V147.168L106.519 145.674C106.319 145.554 105.971 145.567 105.73 145.701L103.601 146.928V146.835H102.905V147.102C102.892 147.182 102.945 147.262 103.039 147.315L106.118 149.089C106.319 149.21 106.667 149.196 106.908 149.063L109.545 147.542C109.679 147.462 109.732 147.368 109.732 147.262L109.746 147.035L109.13 146.968Z" fill="#999999"/>
<path d="M106.118 148.783L103.039 147.008C102.838 146.888 102.865 146.688 103.092 146.555L105.729 145.034C105.957 144.9 106.319 144.887 106.519 145.007L109.598 146.782C109.799 146.902 109.772 147.102 109.545 147.235L106.908 148.756C106.667 148.889 106.318 148.903 106.118 148.783Z" fill="white"/>
<path d="M130.937 159.51V159.71L110.884 148.143C110.683 148.023 110.335 148.036 110.094 148.17L107.965 149.397V149.304H107.269V149.57C107.256 149.65 107.309 149.73 107.403 149.784L127.925 161.618C128.126 161.738 128.474 161.724 128.715 161.591L131.352 160.07C131.486 159.99 131.54 159.897 131.54 159.79L131.553 159.563L130.937 159.51Z" fill="#999999"/>
<path d="M127.925 161.337L107.403 149.503C107.202 149.383 107.229 149.183 107.456 149.05L110.094 147.529C110.321 147.396 110.683 147.382 110.883 147.502L131.406 159.336C131.606 159.456 131.58 159.656 131.352 159.79L128.715 161.311C128.474 161.444 128.126 161.457 127.925 161.337Z" fill="white"/>
<path d="M135.301 162.017V162.217L132.691 160.723C132.49 160.603 132.142 160.616 131.901 160.75L129.773 161.977V161.884H129.076V162.15C129.063 162.231 129.117 162.311 129.21 162.364L132.289 164.138C132.49 164.258 132.838 164.245 133.079 164.112L135.716 162.591C135.85 162.511 135.904 162.417 135.904 162.311L135.917 162.084L135.301 162.017Z" fill="#999999"/>
<path d="M132.289 163.845L129.21 162.071C129.009 161.951 129.036 161.751 129.264 161.617L131.901 160.096C132.128 159.963 132.49 159.95 132.691 160.07L135.77 161.844C135.97 161.964 135.944 162.164 135.716 162.298L133.079 163.819C132.838 163.952 132.49 163.965 132.289 163.845Z" fill="white"/>
<path d="M139.665 164.539V164.739L137.055 163.244C136.854 163.124 136.506 163.138 136.265 163.271L134.137 164.499V164.405H133.44V164.672C133.427 164.752 133.481 164.832 133.574 164.885L136.653 166.66C136.854 166.78 137.202 166.767 137.443 166.633L140.08 165.112C140.214 165.032 140.268 164.939 140.268 164.832L140.281 164.605L139.665 164.539Z" fill="#999999"/>
<path d="M136.653 166.353L133.574 164.579C133.373 164.459 133.4 164.258 133.628 164.125L136.265 162.604C136.493 162.471 136.854 162.457 137.055 162.577L140.134 164.352C140.335 164.472 140.308 164.672 140.08 164.805L137.443 166.326C137.202 166.46 136.854 166.473 136.653 166.353Z" fill="white"/>
<path d="M143.855 166.966V167.166L141.245 165.672C141.044 165.552 140.696 165.565 140.455 165.699L140.254 165.792V165.699H139.558V165.966C139.545 166.046 139.598 166.126 139.692 166.179L142.771 167.954C142.972 168.074 143.32 168.06 143.561 167.927L144.27 167.54C144.404 167.46 144.458 167.367 144.458 167.26L144.471 167.033L143.855 166.966Z" fill="#999999"/>
<path d="M142.784 167.66L139.705 165.886C139.505 165.766 139.531 165.566 139.759 165.432L140.469 165.046C140.696 164.912 141.058 164.899 141.258 165.019L144.337 166.793C144.538 166.913 144.511 167.113 144.284 167.247L143.574 167.634C143.333 167.767 142.985 167.78 142.784 167.66Z" fill="white"/>
<path d="M141.928 168.074V168.274L139.317 166.78C139.117 166.66 138.768 166.673 138.528 166.806L138.327 166.9V166.806H137.631V167.073C137.617 167.153 137.671 167.233 137.764 167.287L140.843 169.061C141.044 169.181 141.392 169.168 141.633 169.034L142.343 168.647C142.477 168.567 142.53 168.474 142.53 168.367L142.544 168.14L141.928 168.074Z" fill="#999999"/>
<path d="M140.843 168.768L137.764 166.993C137.564 166.873 137.59 166.673 137.818 166.54L138.527 166.153C138.755 166.02 139.116 166.006 139.317 166.126L142.396 167.901C142.597 168.021 142.57 168.221 142.343 168.354L141.633 168.741C141.406 168.875 141.044 168.888 140.843 168.768Z" fill="white"/>
<path d="M148.367 169.555V169.755L145.756 168.261C145.556 168.141 145.208 168.154 144.967 168.288L144.766 168.381V168.288H144.07V168.555C144.056 168.635 144.11 168.715 144.204 168.768L147.283 170.542C147.483 170.662 147.831 170.649 148.072 170.516L148.782 170.129C148.916 170.049 148.969 169.955 148.969 169.849L148.983 169.622L148.367 169.555Z" fill="#999999"/>
<path d="M147.282 170.249L144.203 168.475C144.003 168.355 144.029 168.155 144.257 168.021L144.966 167.634C145.194 167.501 145.555 167.488 145.756 167.608L148.835 169.382C149.036 169.502 149.009 169.702 148.782 169.836L148.072 170.223C147.831 170.356 147.483 170.369 147.282 170.249Z" fill="white"/>
<path d="M146.439 170.663V170.863L143.829 169.368C143.628 169.248 143.28 169.262 143.039 169.395L142.838 169.489V169.395H142.142V169.662C142.129 169.742 142.182 169.822 142.276 169.875L145.355 171.65C145.556 171.77 145.904 171.757 146.145 171.623L146.854 171.236C146.988 171.156 147.042 171.063 147.042 170.956L147.055 170.729L146.439 170.663Z" fill="#999999"/>
<path d="M145.355 171.357L142.276 169.582C142.075 169.462 142.102 169.262 142.329 169.129L143.039 168.742C143.266 168.608 143.628 168.595 143.829 168.715L146.908 170.49C147.108 170.61 147.082 170.81 146.854 170.943L146.144 171.33C145.904 171.463 145.555 171.477 145.355 171.357Z" fill="white"/>
<path d="M171.339 155.894L156.841 147.555C155.395 146.728 155.582 145.274 157.242 144.327L178.902 131.866C180.562 130.905 183.079 130.799 184.525 131.639L199.023 139.977C200.469 140.805 200.281 142.259 198.621 143.206L176.961 155.667C175.301 156.627 172.784 156.721 171.339 155.894Z" fill="#616161"/>
<path d="M174.083 149.29L169.813 146.808C169.21 146.462 169.277 145.848 169.987 145.448L180.643 139.311C181.339 138.91 182.396 138.87 183.012 139.217L187.282 141.699C187.885 142.046 187.818 142.659 187.108 143.059L176.452 149.197C175.756 149.597 174.699 149.637 174.083 149.29Z" fill="#13131C"/>
<path d="M174.337 148.517C174.337 148.517 180.736 145.021 186.051 141.499L179.866 141.232L175.756 142.233L174.19 144.341L174.337 148.517Z" fill="#747474"/>
<path d="M186.091 141.445C186.225 141.205 185.676 140.725 185.529 140.565C183.775 138.697 180.83 137.55 178.273 137.897C176.158 138.177 174.23 139.244 172.597 140.552C171.299 141.592 170.147 142.806 169.13 144.127C168.956 144.341 168.795 144.567 168.635 144.794C168.608 144.834 168.461 144.994 168.461 145.048C168.461 145.048 169.21 148.57 174.324 148.516C175.649 147.289 177.095 146.168 178.568 145.141C180.522 143.78 182.61 142.593 184.859 141.806C185.221 141.672 185.569 141.566 185.957 141.525C186.037 141.499 186.078 141.485 186.091 141.445Z" fill="url(#paint0_linear_839_32233)"/>
<path d="M150.656 141.219L78.6881 99.8073C77.4431 99.0869 77.5904 97.8328 79.0361 96.9923L97.1888 86.546C98.6345 85.7188 100.817 85.6254 102.075 86.3459L174.029 127.757C175.274 128.478 175.127 129.732 173.681 130.573L155.529 141.019C154.083 141.846 151.901 141.939 150.656 141.219Z" fill="#F2F2F2"/>
<path d="M122.544 80.0879V99.5396C122.544 100.047 122.249 100.5 121.794 100.7L112.691 105.156V105.023L109.866 105.223L109.88 107.064C109.893 107.318 110.067 107.571 110.415 107.771L131.352 119.818C132.142 120.272 133.427 120.219 134.096 119.725L142.865 113.201C143.414 112.801 143.735 112.161 143.735 111.48V92.2819L122.544 80.0879Z" fill="#636363"/>
<path d="M120.937 79.5146V98.9664C120.937 99.4733 120.643 99.927 120.187 100.127L110.562 104.41C109.692 104.797 109.612 105.544 110.402 105.997L131.339 118.045C132.129 118.498 133.414 118.445 134.083 117.951L141.245 112.628C141.794 112.228 142.115 111.587 142.115 110.907V91.6953L120.937 79.5146Z" fill="url(#paint1_linear_839_32233)"/>
<path d="M166.051 45.3475L88.0455 0.467067C87.1218 -0.0665883 86.2651 -0.119954 85.5957 0.213581C85.5823 0.226922 85.5689 0.226922 85.5556 0.240263L83.6412 1.3476L84.1232 2.21479L84.2972 2.16142C84.2169 2.52164 84.1767 2.92188 84.1767 3.37549V35.2614V57.6082V63.4784C84.1767 66.3201 85.9036 69.6154 88.0455 70.8562L166.064 115.75C166.118 115.777 166.158 115.803 166.212 115.83L166.479 117.177L168.675 115.91C169.451 115.416 169.933 114.349 169.933 112.841V106.971V84.6111V52.7252C169.933 49.8835 168.193 46.5749 166.051 45.3475Z" fill="#636363"/>
<path d="M164.043 116.91L86.0375 72.03C83.8956 70.8026 82.1687 67.4939 82.1687 64.6522V36.4219L167.925 85.7716V114.002C167.925 116.83 166.185 118.138 164.043 116.91Z" fill="#E1E2E4"/>
<path d="M167.925 108.119L82.1687 58.7688V4.53615C82.1687 1.69444 83.8956 0.386983 86.0375 1.61439L164.056 46.5081C166.198 47.7355 167.925 51.0442 167.925 53.8859V108.119Z" fill="#13131C"/>
<path d="M162.289 101.101L87.4431 58.0485C86.6399 57.5949 86.1446 56.741 86.1446 55.8204V8.51194C86.1446 7.77816 86.9344 7.32455 87.5636 7.69811L162.41 50.7641C163.213 51.2177 163.708 52.0715 163.708 52.9921V100.287C163.708 101.021 162.918 101.475 162.289 101.101Z" fill="#61DFC4"/>
<path d="M140.709 46.1606L144.498 43.9727L144.377 84.397L140.589 86.585L140.709 46.1606Z" fill="#BFBFBF"/>
<path d="M109.746 28.3501L113.534 26.1621L144.498 43.9728L140.71 46.1608L109.746 28.3501Z" fill="#F2F2F2"/>
<path d="M140.709 46.1603L140.589 86.5847L109.639 68.774L109.746 28.3496L140.709 46.1603Z" fill="#E6E6E6"/>
<path d="M137.644 48.3892L137.631 52.2048L137.537 80.8354L112.704 66.5335L112.798 34.1006L137.644 48.3892Z" fill="#D4D4D4"/>
<path d="M86.6533 49.1757L83.4672 47.3213L83.3601 79.7408L86.5596 81.5953L86.6533 49.1757Z" fill="#E6E6E6"/>
<path d="M112.825 34.1136L109.625 32.2725L83.4672 47.3215L86.6533 49.176L112.825 34.1136Z" fill="#F2F2F2"/>
<path d="M86.6533 49.1757L86.5596 81.5952L112.731 66.5328L112.825 34.1133L86.6533 49.1757Z" fill="#BFBFBF"/>
<path d="M137.644 48.3892L137.631 52.2048L112.704 66.5335L112.798 34.1006L137.644 48.3892Z" fill="#A6A6A6"/>
<path d="M94.7256 54.6325L89.0228 51.2705L88.9424 76.499L94.6586 79.8611L94.7256 54.6325Z" fill="#E6E6E6"/>
<path d="M115.087 42.9187L109.384 39.5566L89.0225 51.2704L94.7253 54.6324L115.087 42.9187Z" fill="#F2F2F2"/>
<path d="M94.7256 54.6327L94.6586 79.8612L115.02 68.1475L115.087 42.9189L94.7256 54.6327Z" fill="#BFBFBF"/>
<path d="M91.8206 55.5127C91.5261 55.3392 91.2717 55.3259 91.0709 55.446L89.6519 56.2598C89.8393 56.153 90.1071 56.1664 90.4016 56.3265C90.9772 56.66 91.4458 57.4605 91.4458 58.1276C91.4458 58.4611 91.3253 58.6879 91.1379 58.7946L92.5569 57.9808C92.7443 57.8741 92.8648 57.6339 92.8648 57.3137C92.8648 56.6467 92.3962 55.8462 91.8206 55.5127Z" fill="white"/>
<path d="M90.415 56.3262C90.9906 56.6597 91.4592 57.4602 91.4592 58.1273C91.4592 58.7944 90.9906 59.0612 90.415 58.7277C89.8394 58.3941 89.3708 57.5936 89.3708 56.9266C89.3574 56.2595 89.826 55.9927 90.415 56.3262Z" fill="#D9D9D9"/>
<path d="M91.8206 63.958C91.5261 63.7845 91.2717 63.7712 91.0709 63.8913L89.6519 64.7051C89.8393 64.5984 90.1071 64.6117 90.4016 64.7718C90.9772 65.1053 91.4458 65.9058 91.4458 66.5729C91.4458 66.9064 91.3253 67.1332 91.1379 67.24L92.5569 66.4261C92.7443 66.3194 92.8648 66.0793 92.8648 65.7591C92.8648 65.1053 92.3962 64.2915 91.8206 63.958Z" fill="white"/>
<path d="M90.415 64.7715C90.9906 65.1051 91.4592 65.9055 91.4592 66.5726C91.4592 67.2397 90.9906 67.5065 90.415 67.173C89.826 66.8394 89.3574 66.039 89.3574 65.3719C89.3574 64.7048 89.826 64.438 90.415 64.7715Z" fill="#D9D9D9"/>
<path d="M91.8206 72.417C91.5261 72.2435 91.2717 72.2302 91.0709 72.3503L89.6519 73.1641C89.8393 73.0573 90.1071 73.0707 90.4016 73.2308C90.9772 73.5643 91.4458 74.3648 91.4458 75.0319C91.4458 75.3654 91.3253 75.5922 91.1379 75.6989L92.5569 74.8851C92.7443 74.7784 92.8648 74.5382 92.8648 74.218C92.8648 73.551 92.3962 72.7505 91.8206 72.417Z" fill="white"/>
<path d="M90.415 73.2305C90.9906 73.564 91.4592 74.3645 91.4592 75.0316C91.4592 75.6987 90.9906 75.9655 90.415 75.632C89.8394 75.2984 89.3708 74.4979 89.3708 73.8309C89.3574 73.1638 89.826 72.897 90.415 73.2305Z" fill="#D9D9D9"/>
<path d="M81.486 124.876C79.0763 126.263 79.0495 128.518 81.4458 129.905C83.8554 131.293 87.751 131.293 90.174 129.905C92.5837 128.518 92.6104 126.263 90.2008 124.876C87.8046 123.488 83.909 123.488 81.486 124.876Z" fill="#F2F2F2"/>
<path d="M80.5623 124.942V126.863C80.5623 127.637 81.071 128.41 82.0884 128.998C84.1366 130.185 87.4833 130.185 89.5449 128.998C90.589 128.397 91.0977 127.61 91.0977 126.836V124.915C91.0977 125.702 90.5756 126.489 89.5449 127.076C87.4833 128.264 84.1499 128.264 82.0884 127.076C81.0843 126.476 80.5756 125.716 80.5623 124.942Z" fill="#FFD900"/>
<path d="M82.1285 122.767C80.0669 123.955 80.0535 125.876 82.1017 127.063C84.1499 128.251 87.4966 128.251 89.5582 127.063C91.6198 125.876 91.6332 123.955 89.585 122.767C87.5234 121.58 84.1901 121.58 82.1285 122.767Z" fill="#FFF700"/>
<path d="M82.9451 123.248C81.3387 124.168 81.3253 125.663 82.9183 126.583C84.5114 127.504 87.1084 127.504 88.7148 126.583C90.3213 125.663 90.3347 124.168 88.7282 123.234C87.1486 122.327 84.5515 122.327 82.9451 123.248Z" fill="#FFD900"/>
<path d="M122.918 64.9996C120.509 66.3871 120.482 68.6418 122.878 70.0293C125.288 71.4168 129.183 71.4168 131.606 70.0293C134.016 68.6418 134.043 66.3871 131.633 64.9996C129.237 63.6121 125.328 63.6121 122.918 64.9996Z" fill="#A6A6A6"/>
<path d="M121.995 65.0657V66.9869C121.995 67.7607 122.503 68.5345 123.521 69.1215C125.569 70.3089 128.916 70.3089 130.977 69.1215C132.021 68.5212 132.53 67.734 132.53 66.9602V65.0391C132.53 65.8262 132.008 66.6133 130.977 67.2004C128.916 68.3877 125.582 68.3877 123.521 67.2004C122.503 66.6 121.995 65.8262 121.995 65.0657Z" fill="#FFD900"/>
<path d="M123.548 62.8915C121.486 64.0789 121.473 66.0001 123.521 67.1874C125.582 68.3748 128.916 68.3748 130.977 67.1874C133.039 66.0001 133.052 64.0789 131.004 62.8915C128.942 61.7041 125.609 61.7041 123.548 62.8915Z" fill="#FFF700"/>
<path d="M124.177 63.2649C122.463 64.2521 122.45 65.8397 124.15 66.827C125.85 67.8143 128.621 67.8143 130.335 66.827C132.048 65.8397 132.062 64.2521 130.348 63.2649C128.661 62.2776 125.89 62.2776 124.177 63.2649Z" fill="#FFD900"/>
<path d="M87.1084 158.509C84.6988 159.896 84.672 162.151 87.0683 163.538C89.4779 164.926 93.3735 164.926 95.7965 163.538C98.2062 162.151 98.233 159.896 95.8233 158.509C93.4271 157.108 89.5181 157.108 87.1084 158.509Z" fill="#F2F2F2"/>
<path d="M86.1848 158.562V160.483C86.1848 161.257 86.6935 162.031 87.7109 162.618C89.759 163.805 93.1058 163.805 95.1673 162.618C96.2115 162.017 96.7202 161.23 96.7202 160.456V158.535C96.7202 159.322 96.1981 160.109 95.1673 160.696C93.1058 161.884 89.7724 161.884 87.7109 160.696C86.6935 160.109 86.1848 159.336 86.1848 158.562Z" fill="#FFD900"/>
<path d="M87.7376 156.387C85.6761 157.575 85.6627 159.496 87.7109 160.683C89.7724 161.871 93.1058 161.871 95.1673 160.683C97.2289 159.496 97.2423 157.575 95.1941 156.387C93.1325 155.2 89.7992 155.213 87.7376 156.387Z" fill="#FFF700"/>
<path d="M88.5408 156.855C86.921 157.789 86.9076 159.296 88.5141 160.23C90.1205 161.164 92.7309 161.164 94.3507 160.23C95.9706 159.296 95.9839 157.789 94.3641 156.855C92.7711 155.921 90.1606 155.934 88.5408 156.855Z" fill="#FFD900"/>
<path d="M62.8782 170.877C60.4685 172.264 60.4417 174.519 62.838 175.906C65.2476 177.294 69.1432 177.294 71.5662 175.906C73.9759 174.519 74.0027 172.264 71.593 170.877C69.1968 169.489 65.3012 169.489 62.8782 170.877Z" fill="#F2F2F2"/>
<path d="M61.9545 170.943V172.864C61.9545 173.638 62.4632 174.411 63.4806 174.998C65.5288 176.186 68.8755 176.186 70.9371 174.998C71.9812 174.398 72.4899 173.611 72.4899 172.837V170.916C72.4899 171.703 71.9679 172.49 70.9371 173.077C68.8755 174.265 65.5422 174.265 63.4806 173.077C62.4632 172.477 61.9545 171.717 61.9545 170.943Z" fill="#FFD900"/>
<path d="M63.5207 168.768C61.4591 169.956 61.4457 171.877 63.4939 173.064C65.5421 174.252 68.8889 174.252 70.9504 173.064C73.012 171.877 73.0254 169.956 70.9772 168.768C68.9156 167.581 65.5823 167.581 63.5207 168.768Z" fill="#FFF700"/>
<path d="M64.2436 169.196C62.5837 170.156 62.5703 171.704 64.2169 172.651C65.8768 173.612 68.5542 173.612 70.2142 172.651C71.8741 171.691 71.8875 170.143 70.2276 169.182C68.581 168.235 65.9036 168.235 64.2436 169.196Z" fill="#FFD900"/>
<path d="M49.6386 68.7744L42.423 76.5258L34.7657 84.7707V76.8059V68.9745L42.3561 68.8678L49.6386 68.7744Z" fill="white"/>
<defs>
<linearGradient id="paint0_linear_839_32233" x1="179.513" y1="140.458" x2="171.256" y2="150.626" gradientUnits="userSpaceOnUse">
<stop stop-color="white"/>
<stop offset="1" stop-color="#999999"/>
</linearGradient>
<linearGradient id="paint1_linear_839_32233" x1="134.563" y1="89.911" x2="121.236" y2="114.457" gradientUnits="userSpaceOnUse">
<stop stop-color="#636363"/>
<stop offset="0.494" stop-color="#E6E6E6"/>
<stop offset="1" stop-color="#E6E6E6"/>
</linearGradient>
</defs>
</svg>
