<svg width="24" height="24" viewBox="0 0 24 24" fill="none" xmlns="http://www.w3.org/2000/svg">
<path d="M0 12C0 5.37258 5.37258 0 12 0C18.6274 0 24 5.37258 24 12C24 18.6274 18.6274 24 12 24C5.37258 24 0 18.6274 0 12Z" fill="#17AF6D"/>
<path d="M10.4033 16.987L11.707 14.5624C11.7518 14.4787 11.8314 14.4359 11.911 14.4359V4L10.4033 16.987Z" fill="#F5F5F5"/>
<path d="M11.5024 4.25297L5.06369 16.2299C4.8829 16.5666 5.10847 16.987 5.47004 16.987H10.401L11.9087 4C11.7511 4 11.5919 4.08373 11.5024 4.25297Z" fill="white"/>
<path d="M11.9092 14.4359C11.9888 14.4359 12.0667 14.4787 12.1132 14.5624L13.4168 16.987L11.9092 4V14.4359Z" fill="#F5F5F5"/>
<path d="M18.7542 16.2299L12.3172 4.25297C12.226 4.08373 12.0684 4 11.9092 4L13.4152 16.987H18.3462C18.7094 16.987 18.935 16.5666 18.7542 16.2299Z" fill="white"/>
<path d="M12.1037 19.8742C12.0174 20.0417 11.8018 20.0417 11.7173 19.8742L11.0755 18.6202L10.4337 17.3662C10.3474 17.1988 10.4552 16.9868 10.6277 16.9868H11.9096H13.1915C13.364 16.9868 13.4718 17.197 13.3856 17.3662L12.7438 18.6202L12.1037 19.8742Z" fill="#F5F5F5"/>
</svg>
