<svg width="19" height="22" viewBox="0 0 19 22" fill="none" xmlns="http://www.w3.org/2000/svg">
<g clip-path="url(#clip0_1658_12432)">
<path d="M7.42871 17.859L9.22142 14.5248C9.283 14.4097 9.39248 14.3509 9.50196 14.3509V0L7.42871 17.859Z" fill="#038E56"/>
<path d="M8.9402 0.347871L0.0861171 16.8178C-0.162491 17.2808 0.147699 17.859 0.644914 17.859H7.42574L9.49899 0C9.28232 0 9.06336 0.11514 8.9402 0.347871Z" fill="#23AC6F"/>
<path d="M9.49951 14.3509C9.60899 14.3509 9.71619 14.4097 9.78005 14.5248L11.5728 17.859L9.49951 0V14.3509Z" fill="#038E56"/>
<path d="M18.9124 16.8178L10.0606 0.347871C9.93514 0.11514 9.71847 0 9.49951 0L11.5705 17.859H18.3513C18.8508 17.859 19.161 17.2808 18.9124 16.8178Z" fill="#23AC6F"/>
<path d="M9.76642 21.83C9.64784 22.0602 9.35137 22.0602 9.23507 21.83L8.35251 20.1055L7.46996 18.3811C7.35137 18.1509 7.49961 17.8594 7.73678 17.8594H9.4996H11.2624C11.4996 17.8594 11.6478 18.1484 11.5292 18.3811L10.6467 20.1055L9.76642 21.83Z" fill="#038E56"/>
</g>
<defs>
<clipPath id="clip0_1658_12432">
<rect width="19" height="22" fill="white"/>
</clipPath>
</defs>
</svg>
