<svg width="24" height="24" viewBox="0 0 24 24" fill="none" xmlns="http://www.w3.org/2000/svg">
<rect width="24" height="24" rx="12" fill="black"/>
<path d="M11.1995 8.78285C9.42285 8.78285 8.39958 10.2231 8.39958 11.9998C8.39958 13.7765 9.42285 15.0977 11.1995 15.0977C12.2429 15.0977 13.0675 14.6421 13.5705 13.9062L15.3942 15.7099C14.3682 16.869 12.8692 17.5998 11.1995 17.5998C8.10679 17.5998 5.59961 15.0926 5.59961 11.9998C5.59961 8.90708 8.10679 6.3999 11.1995 6.3999C12.699 6.3999 14.0607 6.9892 15.0659 7.94882L13.3349 9.73603C12.8268 9.14744 12.0934 8.78285 11.1995 8.78285Z" fill="white"/>
<circle cx="17.0977" cy="15.8722" r="1.48934" fill="#EAA621"/>
</svg>
