<svg width="25" height="24" viewBox="0 0 25 24" fill="none" xmlns="http://www.w3.org/2000/svg">
<path fill-rule="evenodd" clip-rule="evenodd" d="M12.5 22C18.0228 22 22.5 17.5228 22.5 12C22.5 6.47715 18.0228 2 12.5 2C6.97715 2 2.5 6.47715 2.5 12C2.5 17.5228 6.97715 22 12.5 22ZM13.7032 14.5469L13.9375 6.6875H11.2344L11.4688 14.5469H13.7032ZM11.1719 16.7344C11.1563 17.5312 11.7969 18.1562 12.5782 18.1562C13.3282 18.1562 13.9844 17.5312 14 16.7344C13.9844 15.9688 13.3282 15.3438 12.5782 15.3438C11.7969 15.3438 11.1563 15.9688 11.1719 16.7344Z" fill="#FF485E"/>
</svg>
