<svg width="24" height="24" viewBox="0 0 24 24" fill="none" xmlns="http://www.w3.org/2000/svg">
<path fill-rule="evenodd" clip-rule="evenodd" d="M4 7C4 6.44772 4.44772 6 5 6H19C19.5523 6 20 6.44772 20 7C20 7.55229 19.5523 8 19 8L5 8C4.44772 8 4 7.55228 4 7ZM7 12C7 11.4477 7.44772 11 8 11L16 11C16.5523 11 17 11.4477 17 12C17 12.5523 16.5523 13 16 13L8 13C7.44772 13 7 12.5523 7 12ZM10 16C9.44772 16 9 16.4477 9 17C9 17.5523 9.44772 18 10 18H14C14.5523 18 15 17.5523 15 17C15 16.4477 14.5523 16 14 16H10Z" fill="#777777"/>
</svg>
