<svg width="24" height="24" viewBox="0 0 24 24" fill="none" xmlns="http://www.w3.org/2000/svg">
<path fill-rule="evenodd" clip-rule="evenodd" d="M6 6H18V18H6V6ZM4 6C4 4.89543 4.89543 4 6 4H18C19.1046 4 20 4.89543 20 6V18C20 19.1046 19.1046 20 18 20H6C4.89543 20 4 19.1046 4 18V6ZM15.8638 9.50387C16.1421 9.02682 15.9809 8.4145 15.5039 8.13622C15.0268 7.85794 14.4145 8.01908 14.1362 8.49613L11.3445 13.282L9.25926 10.8492C8.89983 10.4299 8.26853 10.3813 7.84921 10.7407C7.42988 11.1002 7.38132 11.7315 7.74074 12.1508L9.82597 14.5836C10.7211 15.6279 12.379 15.4779 13.072 14.2897L15.8638 9.50387Z" fill="#232527"/>
</svg>
