<svg width="24" height="24" viewBox="0 0 24 24" fill="none" xmlns="http://www.w3.org/2000/svg">
<path fill-rule="evenodd" clip-rule="evenodd" d="M16.4097 8.82958C17.7364 9.86034 18.8289 11.1039 19.5312 12C18.8289 12.8961 17.7364 14.1397 16.4097 15.1704C14.9699 16.2891 13.4577 17 12 17C10.5422 17 9.03003 16.2891 7.59019 15.1704C6.26349 14.1397 5.17098 12.8961 4.46876 12C5.17098 11.1039 6.26349 9.86034 7.59019 8.82958C9.03003 7.71091 10.5422 7 12 7C13.4577 7 14.9699 7.71091 16.4097 8.82958ZM21.2571 10.9622C21.7314 11.5813 21.7314 12.4187 21.2571 13.0378C21.0226 13.3439 20.7365 13.701 20.4047 14.0854C20.5144 14.1339 20.6172 14.2031 20.7071 14.293L22.1213 15.7072C22.5118 16.0977 22.5118 16.7309 22.1213 17.1214C21.7307 17.5119 21.0976 17.5119 20.7071 17.1214L19.2928 15.7072C19.2183 15.6326 19.158 15.5492 19.1119 15.4604C18.4263 16.1272 17.6399 16.7959 16.7766 17.3698C16.8093 17.4101 16.8392 17.4535 16.866 17.4999L17.866 19.2319C18.1421 19.7102 17.9782 20.3218 17.5 20.598C17.0217 20.8741 16.4101 20.7102 16.1339 20.2319L15.1339 18.4999C15.1003 18.4416 15.0732 18.3814 15.0524 18.3201C14.3944 18.6072 13.7067 18.8196 12.9972 18.9252C12.999 18.9499 13 18.9748 13 19V21C13 21.5523 12.5522 22 12 22C11.4477 22 11 21.5523 11 21V19C11 18.9748 11.0009 18.9499 11.0027 18.9252C10.2932 18.8196 9.60556 18.6072 8.94754 18.3201C8.92674 18.3815 8.89962 18.4417 8.86598 18.5L7.86598 20.2321C7.58984 20.7103 6.97824 20.8742 6.49995 20.5981C6.02166 20.3219 5.85778 19.7103 6.13393 19.2321L7.13393 17.5C7.16071 17.4536 7.19066 17.4102 7.22333 17.3698C6.50737 16.8939 5.84435 16.3528 5.24782 15.8015C5.20098 15.895 5.13858 15.9826 5.06061 16.0606L3.64639 17.4748C3.25587 17.8654 2.6227 17.8654 2.23218 17.4748C1.84165 17.0843 1.84165 16.4511 2.23218 16.0606L3.64639 14.6464C3.72812 14.5647 3.82049 14.5001 3.91903 14.4525C3.44692 13.9287 3.05049 13.4394 2.74279 13.0378C2.26852 12.4187 2.26852 11.5813 2.74279 10.9622C4.23593 9.01321 7.81818 5 12 5C16.1817 5 19.764 9.01321 21.2571 10.9622Z" fill="#777777"/>
</svg>
