<svg width="24" height="24" viewBox="0 0 24 24" fill="none" xmlns="http://www.w3.org/2000/svg">
<rect x="0.5" y="0.5" width="23" height="23" rx="11.5" fill="white"/>
<rect x="0.5" y="0.5" width="23" height="23" rx="11.5" stroke="#E2E2E2"/>
<rect x="0.5" y="0.5" width="23" height="23" rx="11.5" fill="white"/>
<rect x="0.5" y="0.5" width="23" height="23" rx="11.5" stroke="#E2E2E2"/>
<path d="M17.446 13.3161C16.9511 15.3704 15.3235 16.9834 13.261 17.4576L7.90465 8.18102C7.98061 8.09959 8.05897 8.02043 8.13961 7.94365L17.446 13.3161Z" fill="#ED234B"/>
<path d="M17.6004 11.8856L9.29924 7.0934C10.1004 6.65142 11.0213 6.3999 12.001 6.3999C15.0559 6.3999 17.5395 8.84556 17.6004 11.8856Z" fill="#ED234B"/>
<path d="M12.001 17.5999C12.0242 17.5999 12.0475 17.5998 12.0706 17.5995L7.18544 9.13892C6.6868 9.97624 6.40039 10.9546 6.40039 11.9999C6.40039 15.0927 8.90785 17.5999 12.001 17.5999Z" fill="#ED234B"/>
</svg>
