<svg width="24" height="24" viewBox="0 0 24 24" fill="none" xmlns="http://www.w3.org/2000/svg">
<rect width="24" height="24" rx="12" fill="#1DC078"/>
<path fill-rule="evenodd" clip-rule="evenodd" d="M6.40039 11.9999C6.40039 8.90711 8.9076 6.3999 12.0004 6.3999C15.0932 6.3999 17.6004 8.90711 17.6004 11.9999V17.5999H12.0004C8.9076 17.5999 6.40039 15.0927 6.40039 11.9999ZM15.9941 16.5817L13.8411 14.4726H10.4731C10.192 14.4726 9.96403 14.2447 9.96403 13.9635C9.96403 13.6824 10.192 13.4544 10.4731 13.4544H12.8017L9.53505 10.2545C9.3342 10.0577 9.33087 9.73541 9.52763 9.53456C9.72438 9.33371 10.0467 9.33039 10.2476 9.52714L11.6811 10.9314L12.3719 8.91734C12.4631 8.65138 12.7527 8.50973 13.0186 8.60095C13.2846 8.69217 13.4262 8.98171 13.335 9.24767L12.4868 11.7207L16.5822 15.7325V11.9999C16.5822 9.46943 14.5309 7.41808 12.0004 7.41808C9.46992 7.41808 7.41857 9.46943 7.41857 11.9999C7.41857 14.5304 9.46992 16.5817 12.0004 16.5817H15.9941Z" fill="white"/>
</svg>
