<svg width="24" height="24" viewBox="0 0 24 24" fill="none" xmlns="http://www.w3.org/2000/svg">
<path fill-rule="evenodd" clip-rule="evenodd" d="M20 12C20 16.4183 16.4183 20 12 20C7.58172 20 4 16.4183 4 12C4 7.58172 7.58172 4 12 4C16.4183 4 20 7.58172 20 12ZM22 12C22 17.5228 17.5228 22 12 22C6.47715 22 2 17.5228 2 12C2 6.47715 6.47715 2 12 2C17.5228 2 22 6.47715 22 12ZM13.2032 14.5469L13.4375 6.6875H10.7344L10.9688 14.5469H13.2032ZM10.6719 16.7344C10.6563 17.5312 11.2969 18.1562 12.0782 18.1562C12.8282 18.1562 13.4844 17.5312 13.5 16.7344C13.4844 15.9688 12.8282 15.3438 12.0782 15.3438C11.2969 15.3438 10.6563 15.9688 10.6719 16.7344Z" fill="#777777"/>
</svg>
